<svg viewBox="0 0 200 200" fill="none" xmlns="http://www.w3.org/2000/svg" height="52" width="52"><path d="M130 175.72C124 182.04 103.54 182 99.18 181.92C86.0614 183.071 72.8758 180.653 61.02 174.92C57.95 176.54 42.56 185.07 39.02 187.46C45.02 193.68 110.93 195.23 140.81 190.76C144.26 190.24 148.94 189.76 151.94 187.85C151.081 187.378 150.265 186.833 149.5 186.22C144.67 183.29 134.51 178.05 130 175.72Z" fill="#ffffff"></path><path d="M182.13 107.31C175.13 102.93 167.04 103.98 160.48 108.63C159.32 109.459 158.211 110.357 157.16 111.32C157.538 113.745 157.791 116.189 157.92 118.64C162.75 112.51 170.31 107.38 177.53 110.42C179.097 110.996 180.509 111.928 181.654 113.143C182.8 114.358 183.647 115.822 184.13 117.42C185.82 123.62 183.03 130.65 179.76 135.85C173.07 146.48 161.37 153.51 148.88 153.15C147.791 154.792 146.62 156.377 145.37 157.9C151.101 158.663 156.929 158.139 162.432 156.366C167.935 154.593 172.973 151.615 177.18 147.65C183.27 142.05 188.13 134.5 189.61 126.28C191 118.76 188.78 111.46 182.13 107.31Z" fill="#ffffff"></path><path d="M61.4 173.1C91.33 187.91 126.15 179.6 144.63 157.03C153.48 146.24 157.26 133.91 156.63 119.55C156.46 116.2 156.13 113.98 155.82 111.77C153.11 115.26 144.54 117.32 140.3 118.23C119.68 122.64 90.02 122.94 69.14 121.13C59.79 120.32 50.14 119.23 41.22 116.31C38.69 115.48 33.07 113.7 32.56 110.38C31.6692 115.725 31.3175 121.145 31.51 126.56C32.57 147.35 42.46 163.72 61.4 173.1Z" fill="#ffffff"></path><path d="M185.94 107.86C179.5 102.04 170.57 101.36 163.08 105.46C160.865 106.69 158.798 108.17 156.92 109.87C156.08 104.93 150.92 103.46 145.55 101.97C111.76 92.59 34.49 96.85 31.55 109.05C30.407 114.211 29.9231 119.497 30.11 124.78C30.3 135.78 33 146.78 39.03 156.09C44.1919 163.777 51.2723 169.982 59.57 174.09C54.76 176.74 45.17 182.03 40.57 184.88C39.41 185.6 36.57 186.88 37.8 188.67C40 192 59.3 193.52 63.26 193.83C80.2099 195.095 97.2202 195.345 114.2 194.58C122.73 194.23 141.2 193.18 149.34 190.48C150.56 190.07 154.42 188.6 153.28 186.6C152.34 184.96 129.71 173.52 128.03 172.67C134.03 169.147 139.431 164.691 144.03 159.47C146.052 159.783 148.094 159.947 150.14 159.96C168.32 159.84 185.24 146.44 190.14 128.96C192.22 121.78 191.85 113.19 185.94 107.86ZM158 120.42C161.94 115.27 168.08 110.17 174.42 111.34C177.73 111.96 181.21 114.19 182.5 117.4C184.73 122.97 182.13 129.75 179.24 134.58C173.24 144.72 162.24 151.67 149.96 151.47C155.62 142.13 158.416 131.334 158 120.42ZM130 175.72C134.59 178.07 144.69 183.28 149.52 186.17C150.285 186.783 151.101 187.328 151.96 187.8C148.96 189.74 144.25 190.2 140.83 190.71C110.26 195.29 44.88 193.48 39.04 187.41C42.78 184.87 59.52 175.66 61.04 174.87C72.8958 180.603 86.0814 183.021 99.2 181.87C103.5 182 124 182 130 175.72ZM143.85 158C138.464 164.19 131.935 169.283 124.62 173C94.14 188.68 57.4 178.14 41.84 157.18C35.28 148.33 32.05 137.48 31.47 126.56C31.2775 121.145 31.6292 115.725 32.52 110.38C33.03 113.7 38.65 115.48 41.18 116.31C70.51 125.87 146.88 123.25 155.78 111.77C155.78 111.77 155.78 111.77 155.78 111.84C158.52 129.14 155.11 144.8 143.85 158ZM145.37 157.94C146.62 156.417 147.791 154.832 148.88 153.19C161.37 153.55 173.07 146.52 179.76 135.89C183.03 130.69 185.82 123.66 184.13 117.46C183.647 115.862 182.8 114.398 181.654 113.183C180.509 111.968 179.097 111.036 177.53 110.46C170.31 107.46 162.75 112.56 157.92 118.68C157.796 116.228 157.542 113.785 157.16 111.36C165.95 103.36 175.16 102.99 182.16 107.36C202.74 120.16 179.76 162.55 145.37 157.89V157.94Z" fill="#0d128a"></path><path d="M180.13 187.15C180.13 187.15 180.16 187.16 180.13 187.15V187.15Z" fill="#6cecc4"></path><path d="M129.46 92.26C129.792 90.8136 130.275 89.4059 130.9 88.06C128.72 89.15 125.5 92.62 123.83 94.63C123.12 95.49 122.5 96.49 121.75 97.3C120.75 98.42 118.28 98.42 116.83 98.51C111.875 98.7055 106.957 97.5694 102.59 95.22C102.03 96.07 92.7 110.22 88.59 116.48C89.1624 117.648 89.6342 118.862 90 120.11C93.67 120.64 95.72 120.56 104.86 120.47C109.55 120.454 114.231 120.069 118.86 119.32L129.74 101.47C128.49 98.69 128.72 95.35 129.46 92.26Z" fill="#91a1f2"></path><path d="M55.29 138C55.5734 139.246 56.0563 140.438 56.72 141.53C56.96 141.89 56.62 142.63 56.33 142.86C54.9635 143.95 53.6923 145.154 52.53 146.46C51.93 147.15 48.93 150.89 51.53 150.82C53.71 150.77 56.23 148.57 57.86 147.33C59.561 146.083 61.1625 144.705 62.65 143.21C61.8018 141.165 61.1098 139.059 60.58 136.91L55.29 138Z" fill="#91a1f2"></path><path d="M16.08 131C16.2372 132.232 16.5917 133.431 17.13 134.55C17.36 135 16.86 135.81 16.57 136.01C15.1003 136.966 13.7152 138.047 12.43 139.24C11.73 139.89 8.47999 143.24 11.22 143.32C13.47 143.32 16.05 141.53 17.88 140.4C19.673 139.35 21.3845 138.167 23 136.86C22.3707 134.762 21.8994 132.619 21.59 130.45L16.08 131Z" fill="#91a1f2"></path><path d="M142 126.2L148.73 129.97L152.06 125.54L145.69 121.46C144.35 123 143.09 124.55 142 126.2Z" fill="#91a1f2"></path><path d="M97.77 100.34C100.45 96.5 99.45 97.98 101.99 94.13C102.04 93.62 102.1 93.13 102.15 92.61C100.86 92.45 99.58 92.21 98.31 91.95C80.91 88.3 68.74 78 67 60.36C64.68 62.27 61.43 63.78 58.33 63.36C58.891 69.4189 60.801 75.2754 63.92 80.5C74.68 98.1 97.14 99.8 97.77 100.34Z" fill="#91a1f2"></path><path d="M66.9 58.91C66.75 56.7926 66.75 54.6673 66.9 52.55C64.43 54.62 60.41 56.31 58.68 53.55C58.5715 53.3022 58.4877 53.0443 58.43 52.78C58.0665 55.6583 57.9761 58.5646 58.16 61.46C62.67 62.65 66.62 59.06 66.9 58.91Z" fill="#91a1f2"></path><path d="M161 98.26C156.08 87.99 143.73 85.88 132.52 87.26C131.41 89.1666 130.697 91.2786 130.426 93.4682C130.154 95.6579 130.329 97.8798 130.94 100C134.99 95.93 140.94 93.55 146.31 95.93C150.12 97.63 153.73 101.34 154.02 105.67C154.36 110.82 150.26 115.96 146.82 120.08L153.13 124.08C154.63 122.08 156.13 120.13 157.65 118.17C159.91 115.25 161.99 112.85 162.59 109.11C163.164 105.416 162.61 101.634 161 98.26Z" fill="#91a1f2"></path><path d="M102 94.34C102 94.27 102 94.2 102 94.13C99.33 98.17 99.3 98.15 102 94.34Z" fill="#ffde26"></path><path d="M75.61 32.91C75.4254 32.7557 75.2032 32.6531 74.9661 32.6127C74.7289 32.5723 74.4853 32.5955 74.26 32.68C73.6896 32.9165 73.2365 33.3696 73 33.94L72.7 33.85C72.818 33.6203 72.9118 33.379 72.98 33.13C73.0826 32.8487 73.1168 32.5471 73.08 32.25C72.96 31.51 72.08 31.39 71.45 31.68C70.65 32.09 71 33.14 71.18 33.81C70.7941 33.922 70.4476 34.1403 70.18 34.44C71.2777 34.4947 72.3685 34.6452 73.44 34.89C73.44 34.89 73.51 34.89 73.55 34.89C73.8275 34.9191 74.1019 34.9727 74.37 35.05C75.73 34.84 76.37 33.59 75.61 32.91Z" fill="#ffde26"></path><path d="M73.67 35.33C73 37 71.37 36.71 71 35.4C70.9069 35.637 70.7514 35.8443 70.55 36C69.926 35.7099 69.2297 35.6124 68.55 35.72C68.55 35.85 68.55 35.94 68.55 35.94L68.25 36.05C68.2115 36.0306 68.1774 36.0034 68.15 35.97C67.45 36.75 68.7 37.61 70.15 37.51L70.07 38.28C70.8743 38.7346 71.8189 38.8736 72.72 38.67C73.1276 38.073 73.6598 37.5715 74.28 37.2C74.4187 36.596 74.3841 35.9652 74.18 35.38L73.67 35.33ZM72.28 36.94L72.12 37.12C72.25 37.43 72.4 38.12 71.89 38.12C71.6013 38.0992 71.3322 37.9664 71.14 37.75C70.9783 37.8001 70.8089 37.8204 70.64 37.81C70.44 37.81 70.64 37.37 70.8 37.39C71.0568 37.3786 71.3077 37.3098 71.5345 37.1887C71.7612 37.0676 71.9578 36.8972 72.11 36.69C72.31 36.48 72.44 36.77 72.28 36.94Z" fill="#ffde26"></path><path d="M66.42 107.43C54.98 110.53 53.02 123.49 54.42 133.66L59.72 132.56C59.03 127.78 59.05 122.56 61.39 118.24C62.8065 115.556 65.1936 113.513 68.0645 112.528C70.9355 111.543 74.074 111.69 76.84 112.94C79.2452 114.128 81.2558 115.986 82.63 118.29C82.81 118.58 83.52 120.18 83.52 120.18C83.73 120.31 83.22 120.18 88.52 120.42C85.08 110.87 76.94 104.81 66.42 107.43Z" fill="#ffde26"></path><path d="M30.28 101.73C18.53 103.73 15.28 116.27 15.65 126.6L21.1 126C20.87 121 21.46 115.64 24.43 111.54C29.23 104.88 39.43 104.54 44.43 112.68C45.0356 113.541 45.5013 114.493 45.81 115.5C45.93 116.12 45.71 115.95 46.37 116.11C48.19 116.56 50.07 116.84 51.94 117.11C48.58 106.84 41.12 100.13 30.28 101.73Z" fill="#ffde26"></path><path d="M142.17 127.75C142.076 127.934 141.939 128.092 141.77 128.21C140.927 128.903 140.153 129.677 139.46 130.52C137.971 132.328 137.158 134.598 137.16 136.94C137.063 137.592 137.107 138.257 137.29 138.89C137.703 137.819 138.037 136.72 138.29 135.6C138.41 135.12 139.6 133.95 139.6 135.07C139.6 135.74 139.6 136.42 139.6 137.07C139.56 137.872 139.648 138.675 139.86 139.45C140.14 138.89 140.81 136.8 141.06 135.96C141.21 135.47 142.31 134.69 142.31 135.65C142.272 136.787 142.407 137.923 142.71 139.02C142.9 139.57 143.12 140.27 143.61 139.84C144.1 139.41 144.07 138.13 144.15 137.62C144.153 136.686 144.34 135.762 144.7 134.9C145.39 133.77 146.7 132.67 146.83 131.27C146.852 131.108 146.914 130.953 147.01 130.82L142.17 127.75Z" fill="#ffde26"></path><path d="M110.74 63.12C108.484 63.6041 106.407 64.705 104.74 66.3C113.163 66.7933 121.528 68.0145 129.74 69.95C129.943 69.9965 130.122 70.1179 130.24 70.29C130.315 70.2076 130.406 70.1419 130.507 70.0971C130.609 70.0523 130.719 70.0294 130.83 70.03C133.052 70.1445 135.274 69.8042 137.36 69.03C141.81 67.38 146.42 62.43 142.9 57.68C139.38 52.93 132.9 54.31 128.9 57.42C126.878 58.9289 125.308 60.9624 124.36 63.3C124.26 63.57 123.85 64.2 123.46 64.09L121.31 63.48C120.31 63.19 121.37 62.37 121.53 61.72C122.499 59.4391 123.227 57.0628 123.7 54.63C124.24 50.48 121.98 47.48 117.79 47.16C114.34 46.89 110.51 48.37 110 52.16C109.57 55.38 110.7 58.7 111.53 61.77C111.572 62.0513 111.516 62.3384 111.372 62.5839C111.229 62.8293 111.006 63.0184 110.74 63.12Z" fill="#ffde26"></path><path d="M130.1 72.42C128.84 76.29 126.21 80.51 122.4 81.89C116.93 83.89 111.88 80.31 109.76 75.44C109.321 76.1799 108.809 76.8734 108.23 77.51L109.05 77.9C109.72 78.22 108.83 79.82 108.13 79.49C103.99 77.49 96.82 75.19 92.22 76.49C90.55 76.96 88.75 78.15 88.42 79.99C87.7 83.94 95.05 88.81 104.92 87.51C105.86 87.39 105.29 89.08 104.6 89.16L103.75 89.26C103.75 89.26 103.33 93.35 103.31 93.5C107.636 95.8757 112.529 97.0205 117.46 96.81C118.644 96.7893 119.822 96.6315 120.97 96.34C121.381 95.9368 121.743 95.4871 122.05 95C124.52 91.83 128.23 87.7 131.87 85.94C131.87 85.73 131.96 85.51 132 85.3C132.658 80.9367 132.086 76.4765 130.35 72.42H130.1ZM118.36 92.74C116.03 95.22 111.28 92.6 109.6 89.93C108.956 90.0101 108.304 90.0101 107.66 89.93C106.85 89.84 107.59 88.17 108.3 88.24C111.96 88.63 115.64 85.86 118.07 83.09C118.88 82.16 119.37 83.33 118.75 84.09L118.29 84.6C119.24 86.21 120.18 90.8 118.36 92.74Z" fill="#ffde26"></path><path d="M59.9 52.26C60.0125 52.4362 60.1507 52.5946 60.31 52.73C62.11 54.33 65.99 52.14 67.39 50.47C67.81 49.96 67.79 49.9 67.1 49.85C66.5201 49.8589 65.9457 49.9637 65.4 50.16C64.6402 50.3743 63.8953 50.6382 63.17 50.95C62.17 51.34 62.66 49.75 63.17 49.42C64.3758 48.7616 65.4477 47.8831 66.33 46.83C67.07 45.76 65.54 45.83 64.82 46.08C64.231 46.3116 63.6706 46.6102 63.15 46.97C62.42 47.43 62.59 46.29 62.87 45.75C62.9038 45.6776 62.9476 45.6103 63 45.55C63.5516 44.9922 64.0724 44.4046 64.56 43.79C64.8439 43.4455 65.0982 43.0775 65.32 42.69C65.14 42.43 61.06 44.14 59.78 46.46C59 47.81 59.44 50.81 59.9 52.26Z" fill="#ffde26"></path><path d="M102.73 67.9L107.59 76.57C107.861 76.2815 108.112 75.9741 108.34 75.65L104 68L102.73 67.9Z" fill="#91a1f2"></path><path d="M100 67.77C97 67.66 97.69 67.7 97.1 67.65L101.26 75.07C102.41 75.34 103.54 75.68 104.65 76.07C101.45 70.36 99.92 67.64 100 67.77Z" fill="#91a1f2"></path><path d="M123.18 70.35L121.77 70.09L126.05 77.72C126.317 77.4047 126.561 77.0705 126.78 76.72L123.18 70.35Z" fill="#91a1f2"></path><path d="M115.73 69.13L122.06 80.42C122.857 80.1776 123.609 79.8096 124.29 79.33L118.83 69.59C117.8 69.43 116.77 69.27 115.73 69.13Z" fill="#91a1f2"></path><path d="M70.07 34.44H69.88L70.68 35.86C70.7157 35.8186 70.7491 35.7752 70.78 35.73L70.07 34.44Z" fill="#91a1f2"></path><path d="M69.49 34.42H69.09L69.86 35.81C70.0263 35.8497 70.1899 35.8998 70.35 35.96L69.49 34.42Z" fill="#91a1f2"></path><path d="M72.77 34.77H72.57L73.29 36L73.39 35.87L72.77 34.77Z" fill="#91a1f2"></path><path d="M71.72 34.6L72.72 36.42C72.8274 36.3776 72.9284 36.3203 73.02 36.25L72.13 34.66L71.72 34.6Z" fill="#91a1f2"></path><path d="M99.78 34.23L88.94 27.8C88.8875 27.7671 88.8431 27.7228 88.8101 27.6703C88.7772 27.6178 88.7566 27.5586 88.7499 27.497C88.7431 27.4354 88.7504 27.373 88.7712 27.3147C88.7921 27.2563 88.8258 27.2034 88.87 27.16L99.05 17.31C99.1117 17.2455 99.1506 17.1626 99.1609 17.074C99.1712 16.9853 99.1523 16.8957 99.107 16.8188C99.0618 16.7419 98.9927 16.6818 98.9102 16.6477C98.8277 16.6137 98.7364 16.6074 98.65 16.63L87.94 19.88C87.8735 19.8995 87.803 19.9019 87.7353 19.8868C87.6676 19.8717 87.6049 19.8396 87.5529 19.7937C87.501 19.7477 87.4615 19.6893 87.4383 19.624C87.415 19.5586 87.4088 19.4884 87.42 19.42L89.8 5.48C89.8151 5.39102 89.8004 5.29956 89.7582 5.21979C89.716 5.14003 89.6486 5.07641 89.5666 5.03881C89.4846 5.00121 89.3924 4.99173 89.3044 5.01183C89.2165 5.03193 89.1376 5.0805 89.08 5.15L79.34 17C79.2597 17.0782 79.1521 17.1219 79.04 17.1219C78.9279 17.1219 78.8203 17.0782 78.74 17L69 8C68.9385 7.94024 68.8594 7.90183 68.7744 7.89044C68.6894 7.87905 68.603 7.89528 68.5279 7.93674C68.4528 7.9782 68.3931 8.04269 68.3574 8.1207C68.3218 8.19871 68.3122 8.28611 68.33 8.37L70.81 21.84L80.42 20.72C80.82 20.67 81 21.02 80.91 21.38C80.61 22.39 78 33.2 77 37.55L85.43 44C85.5008 44.0528 85.5868 44.0814 85.6752 44.0814C85.7635 44.0814 85.8495 44.0528 85.9203 44C85.9911 43.9472 86.043 43.8729 86.0682 43.7882C86.0933 43.7035 86.0905 43.6129 86.06 43.53L83.18 35.53C83.1597 35.4677 83.1543 35.4015 83.1641 35.3367C83.174 35.272 83.1989 35.2104 83.2367 35.157C83.2746 35.1035 83.3245 35.0597 83.3824 35.0289C83.4403 34.9982 83.5045 34.9815 83.57 34.98H99.57C99.6562 34.9761 99.739 34.9451 99.8066 34.8914C99.8742 34.8377 99.9231 34.7641 99.9463 34.681C99.9696 34.5979 99.966 34.5095 99.9362 34.4286C99.9063 34.3476 99.8517 34.2781 99.78 34.23Z" fill="#91a1f2"></path><path d="M73.75 24.3C73.42 24.2 73.04 24.51 72.89 25C72.74 25.49 72.89 26 73.21 26.06C73.53 26.12 73.92 25.84 74.06 25.36C74.2 24.88 74.07 24.4 73.75 24.3Z" fill="#91a1f2"></path><path d="M53.72 117.71C52.17 110.84 47.47 103.71 40.77 101.03C37.5239 99.8061 34.0122 99.4612 30.59 100.03C17.67 102.19 13.8 116.48 14.34 127.81C14.4136 130.291 14.8413 132.75 15.61 135.11C14.0409 136.185 12.5777 137.408 11.24 138.76C10.17 139.87 7.29 143.35 9.53 144.76C11.42 145.95 15.01 143.6 16.53 142.76C19.1799 141.311 21.6616 139.574 23.93 137.58C24.1033 137.439 24.2368 137.254 24.3174 137.046C24.3981 136.837 24.4231 136.611 24.39 136.39C23.6422 133.977 23.1036 131.505 22.78 129C21.6 120.47 22.85 110.28 31.23 108.42C37.6 107.02 42.88 111.68 44.86 117.42C44.8783 117.496 44.9184 117.564 44.9752 117.618C45.0321 117.671 45.1032 117.707 45.18 117.72L52.77 119.1C53.38 119.21 53.83 118.19 53.72 117.71ZM23 136.86C21.3983 138.175 19.7002 139.369 17.92 140.43C16.09 141.56 13.51 143.43 11.26 143.35C8.52 143.35 11.77 139.92 12.47 139.27C13.7409 138.065 15.1126 136.971 16.57 136C16.88 135.8 17.36 135 17.13 134.54C16.5928 133.424 16.2382 132.229 16.08 131L21.55 130.42C21.871 132.6 22.3557 134.753 23 136.86ZM15.79 128.21L21.25 127.64C21.25 128.04 21.33 128.45 21.38 128.85L15.91 129.43C15.83 129 15.78 128.62 15.75 128.21H15.79ZM46.45 116.14C45.79 115.98 46.01 116.14 45.89 115.53C45.5813 114.523 45.1156 113.571 44.51 112.71C39.57 104.62 29.32 104.84 24.51 111.57C21.51 115.67 20.95 121.07 21.18 126.03L15.73 126.6C15.35 116.27 18.61 103.69 30.36 101.73C41.2 100.13 48.66 106.84 52.06 117.17C50.12 116.87 48.23 116.59 46.41 116.14H46.45Z" fill="#0d128a"></path><path d="M112.89 100.16C112.646 100.158 112.408 100.228 112.204 100.362C112 100.496 111.841 100.688 111.747 100.912C111.652 101.137 111.626 101.385 111.672 101.624C111.719 101.863 111.835 102.083 112.007 102.256C112.178 102.429 112.397 102.547 112.636 102.596C112.875 102.644 113.123 102.62 113.348 102.527C113.574 102.435 113.766 102.277 113.902 102.074C114.038 101.872 114.11 101.634 114.11 101.39C114.11 101.066 113.982 100.754 113.753 100.524C113.525 100.293 113.215 100.163 112.89 100.16Z" fill="#0d128a"></path><path d="M110.28 106.15C110.036 106.15 109.798 106.222 109.596 106.358C109.393 106.494 109.236 106.686 109.143 106.912C109.05 107.137 109.026 107.385 109.074 107.624C109.123 107.863 109.241 108.082 109.414 108.253C109.587 108.425 109.807 108.541 110.046 108.588C110.285 108.634 110.533 108.608 110.758 108.513C110.982 108.419 111.174 108.26 111.308 108.056C111.442 107.852 111.512 107.614 111.51 107.37C111.51 107.209 111.478 107.049 111.416 106.901C111.354 106.752 111.263 106.617 111.149 106.504C111.035 106.39 110.899 106.301 110.75 106.24C110.601 106.179 110.441 106.149 110.28 106.15Z" fill="#0d128a"></path><path d="M158.85 92.13C154.13 87.21 147.28 85.36 140.65 85.19C138.207 85.0998 135.76 85.2303 133.34 85.58C133.935 81.3138 133.538 76.9677 132.18 72.88L133.18 73.14C134.94 73.62 140.05 75.59 137.09 77.63C136.53 78.02 136.24 79.75 137.09 79.15C137.634 78.806 138.104 78.3576 138.473 77.8306C138.842 77.3036 139.103 76.7085 139.24 76.08C139.67 73.41 136.63 72.24 134.04 71.49C138.64 70.66 143.17 67.93 144.87 63.59C148 55.59 137.57 48.2 127.87 56.59C126.044 58.1376 124.559 60.048 123.51 62.2L122.59 61.93C124.44 57.26 126.82 50.8 123.13 47.34C120.96 45.34 117.57 45.02 114.79 45.73C113.303 46.0812 111.948 46.8508 110.885 47.9477C109.822 49.0446 109.095 50.423 108.79 51.92C108.14 55.18 109.07 58.56 109.95 61.73C107.334 62.5583 105 64.0993 103.21 66.18C101.93 66.12 100.65 66.06 99.37 66.02C97.7 65.96 95.98 65.58 95.2 67.42C94.3734 69.6767 94.146 72.1092 94.54 74.48C93.3618 74.5799 92.2106 74.888 91.14 75.39C91.23 73.55 91.04 69.86 88.04 70.09C84.17 70.39 87.23 76.17 88.82 77.09C83.6 82.72 90.72 90 102.48 89.38L102.33 90.88C98.5278 90.3689 94.801 89.4019 91.23 88C83 84.9 75.53 79.45 71.5 71.43C66.8 62.06 68.35 52.06 68.3 51.18C68.5792 50.8968 68.788 50.552 68.9096 50.1733C69.0312 49.7947 69.0621 49.3928 69 49L73.94 47.76C74.1502 47.6779 74.3354 47.5426 74.4774 47.3672C74.6194 47.1919 74.7134 46.9826 74.75 46.76C75.49 43.68 80.62 22.36 80.88 21.3C80.97 20.94 80.79 20.59 80.39 20.64L67.19 22.2C66.77 22.25 66.48 22.85 66.39 23.2L61.59 43C60.6552 43.7301 59.8213 44.5808 59.11 45.53C58.11 46.97 57.91 49.23 58.11 51.23C57.8951 51.3061 57.7052 51.4394 57.5606 51.6157C57.4161 51.792 57.3225 52.0044 57.29 52.23C56.4787 57.1231 56.5159 62.1194 57.4 67C58.1473 72.0882 59.8935 76.9784 62.5382 81.3891C65.1829 85.7998 68.6738 89.6438 72.81 92.7C79.81 97.82 88.35 100.53 96.81 101.94C93.8633 106.433 90.91 110.917 87.95 115.39C85.49 110.98 81.63 107.22 76.87 105.78C73.5363 104.855 70.0137 104.855 66.68 105.78C53.93 109.23 51.48 123.78 53.15 135.12C53.4695 137.565 54.1433 139.95 55.15 142.2C53.6336 143.459 52.2528 144.874 51.03 146.42C50.11 147.61 47.67 151.34 50.11 152.35C52.2 153.22 55.44 150.57 56.96 149.49C59.4571 147.778 61.7576 145.796 63.82 143.58C63.9427 143.447 64.0335 143.288 64.0855 143.115C64.1375 142.941 64.1493 142.758 64.12 142.58C62.7481 139.401 61.7417 136.076 61.12 132.67C59.96 125.88 60.3 116.37 68.2 113.98C74.32 112.13 79.92 116.18 82.42 121.6C82.48 121.74 82.56 121.88 82.74 121.89C92.94 122.37 98.68 122.2 100.51 122.2C105.82 122.2 112.51 122.2 118.27 121.04C119.54 120.79 119.86 119.68 120.51 118.62C132.59 98.81 130.85 101.89 130.98 101.53C134.2 97.96 139.48 95.59 144.21 97.09C148.03 98.3 152.09 101.88 152.58 106.09C153.37 112.73 145.19 119.15 140.39 126.5C140.22 126.76 140.06 127.37 140.39 127.57L140.55 127.66C138.827 129.112 137.491 130.967 136.66 133.061C135.83 135.155 135.531 137.422 135.79 139.66C136.01 141.29 137.07 141.66 137.92 140.16C138.03 139.95 138.13 139.74 138.23 139.53C138.35 140.77 138.63 141.84 139.31 141.85C140.31 141.85 140.83 140.07 141.16 139.24C141.43 140.81 142.02 142.29 143.38 141.72C145.26 140.93 145.51 137.56 145.63 135.59C146.637 134.474 147.425 133.178 147.95 131.77L148.06 131.83C148.33 131.99 148.7 131.73 148.86 131.52C152.41 126.77 155.96 122.03 159.63 117.37C161.017 115.78 162.138 113.977 162.95 112.03C164.144 108.654 164.393 105.016 163.67 101.509C162.947 98.0022 161.281 94.7591 158.85 92.13ZM110.74 63.13C111.011 63.0274 111.239 62.8336 111.383 62.5818C111.527 62.33 111.579 62.0359 111.53 61.75C110.7 58.68 109.53 55.36 110 52.14C110.51 48.34 114.34 46.86 117.79 47.14C121.98 47.46 124.24 50.46 123.7 54.61C123.234 57.0444 122.506 59.4215 121.53 61.7C121.43 62.09 120.41 63.2 121.31 63.46L123.46 64.07C123.85 64.18 124.26 63.56 124.36 63.28C125.312 60.9444 126.881 58.9118 128.9 57.4C132.9 54.29 139.44 53 142.9 57.66C146.36 62.32 141.81 67.36 137.36 69.01C135.274 69.7842 133.052 70.1244 130.83 70.01C130.719 70.0094 130.609 70.0323 130.507 70.0771C130.406 70.1219 130.315 70.1876 130.24 70.27C130.122 70.0978 129.944 69.9764 129.74 69.93C121.528 67.9945 113.163 66.7733 104.74 66.28C106.409 64.6922 108.486 63.5983 110.74 63.12V63.13ZM121.74 70.13L123.15 70.39L126.75 76.81C126.525 77.1563 126.281 77.4901 126.02 77.81L121.74 70.13ZM124.26 79.37C123.579 79.8496 122.827 80.2175 122.03 80.46L115.7 69.17C116.7 69.31 117.77 69.46 118.8 69.63L124.26 79.37ZM104 68L108.31 75.68C108.082 76.004 107.831 76.3115 107.56 76.6L102.7 67.93L104 68ZM100 67.8L104.65 76.09C103.54 75.71 102.41 75.37 101.26 75.09L97.1 67.67C97.68 67.7 97 67.66 100 67.77V67.8ZM88.42 80C88.75 78.16 90.55 77 92.22 76.5C96.82 75.18 103.93 77.5 108.13 79.5C108.83 79.83 109.72 78.23 109.05 77.91L108.23 77.52C108.809 76.8834 109.321 76.1899 109.76 75.45C111.88 80.32 116.93 83.88 122.4 81.9C126.19 80.53 128.83 76.33 130.1 72.43H130.35C132.087 76.497 132.658 80.9669 132 85.34C132 85.55 131.91 85.77 131.87 85.98C129.173 87.4564 126.775 89.4234 124.8 91.78C121.7 95.17 121.38 96.19 120.97 96.36C119.822 96.6515 118.644 96.8092 117.46 96.83C112.529 97.0405 107.636 95.8957 103.31 93.52C103.31 93.37 103.75 89.28 103.75 89.28L104.6 89.18C105.29 89.1 105.86 87.41 104.92 87.53C95.1 88.82 87.7 84 88.42 80ZM67.42 23.78L79.4 22.4C78.32 26.9 73.84 45.5 73.65 46.28L67 47.94C67.4498 47.417 67.7656 46.7923 67.92 46.12C68.3 44.26 66.92 44.12 65.53 44.43C65.7863 44.0854 66.0201 43.7246 66.23 43.35C66.9 42.13 66.69 41.12 65.63 41.07L69.69 24.86C69.98 23.7 68.58 24.44 68.4 25.19C67.0667 30.5766 65.7333 35.9633 64.4 41.35C63.9142 41.5229 63.4456 41.7405 63 42C64.5 35.9266 65.9867 29.8566 67.46 23.79L67.42 23.78ZM59.8 46.46C61.11 44.11 65.16 42.46 65.34 42.69C65.1182 43.0774 64.8639 43.4454 64.58 43.79C64.0859 44.4051 63.5585 44.9927 63 45.55C62.63 45.92 62.33 47.49 63.15 46.97C63.6662 46.603 64.2275 46.3039 64.82 46.08C65.54 45.82 67.07 45.76 66.33 46.83C65.4463 47.8817 64.3748 48.76 63.17 49.42C62.8455 49.698 62.6353 50.0862 62.58 50.51C62.53 50.93 62.73 51.11 63.15 50.95C63.8756 50.6389 64.6204 50.375 65.38 50.16C65.9257 49.9636 66.5001 49.8589 67.08 49.85C67.77 49.85 67.79 49.96 67.37 50.47C65.98 52.13 62.1 54.34 60.29 52.73C60.1307 52.5946 59.9925 52.4362 59.88 52.26C59.45 50.81 59 47.81 59.8 46.46ZM58.47 52.82C58.5324 53.083 58.616 53.3405 58.72 53.59C60.45 56.31 64.47 54.59 66.94 52.59C66.79 54.7073 66.79 56.8326 66.94 58.95C66.72 59.07 62.74 62.69 58.24 61.54C58.0403 58.6326 58.1173 55.7128 58.47 52.82ZM58.35 63.34C61.45 63.78 64.7 62.27 67.02 60.34C67.82 68.52 71.02 76.18 77.41 81.95C83.22 87.19 90.72 90.34 98.31 91.95C99.58 92.21 100.86 92.45 102.15 92.61C102.1 93.11 101.98 94.27 101.97 94.34C100.621 96.3941 99.148 98.3643 97.56 100.24C76 96.68 60.52 84.9 58.35 63.34ZM54.93 136.45C54.84 136.03 54.76 135.61 54.68 135.19L60 134.1C60.08 134.52 60.16 134.94 60.25 135.35L54.93 136.45ZM62.67 143.17C61.1825 144.665 59.581 146.043 57.88 147.29C56.25 148.53 53.73 150.73 51.55 150.78C48.93 150.85 51.93 147.11 52.55 146.42C53.7123 145.114 54.9835 143.91 56.35 142.82C56.63 142.6 56.99 141.82 56.74 141.49C56.0732 140.412 55.5837 139.233 55.29 138L60.6 136.91C61.1317 139.046 61.8237 141.138 62.67 143.17ZM83.53 120.17C83.53 120.17 82.82 118.57 82.64 118.28C77.1 109.28 65.77 110.17 61.4 118.23C59.06 122.56 59.04 127.77 59.73 132.55L54.43 133.65C53.02 123.48 54.98 110.52 66.43 107.42C76.93 104.8 85.12 110.85 88.49 120.42C83.34 120.17 83.71 120.29 83.53 120.18V120.17ZM118.85 119.31C114.221 120.059 109.54 120.444 104.85 120.46C95.05 120.55 93.41 120.59 89.99 120.1C89.6145 118.851 89.1328 117.637 88.55 116.47C92.67 110.23 102 96.06 102.55 95.21C104.678 96.3396 106.939 97.1995 109.28 97.77C107.34 101.23 105.407 104.693 103.48 108.16C102.93 109.16 103.88 109.7 104.48 108.71L110.48 98.02C112.579 98.4642 114.728 98.6256 116.87 98.5C118.32 98.41 120.74 98.41 121.79 97.29C122.54 96.48 123.16 95.47 123.87 94.62C125.135 93.0527 126.516 91.5819 128 90.22C128.881 89.3956 129.85 88.6712 130.89 88.06C130.255 89.4017 129.772 90.8106 129.45 92.26C128.66 95.34 128.45 98.69 129.72 101.47L118.85 119.31ZM146.9 131.31C146.77 132.71 145.46 133.81 144.77 134.94C144.411 135.802 144.224 136.726 144.22 137.66C144.14 138.17 144.09 139.52 143.68 139.88C143.27 140.24 142.97 139.61 142.78 139.06C142.477 137.963 142.342 136.827 142.38 135.69C142.38 134.69 141.28 135.51 141.13 136C140.92 136.73 140.19 139 139.93 139.49C139.712 138.717 139.624 137.912 139.67 137.11C139.67 136.43 139.67 135.75 139.67 135.11C139.67 133.99 138.48 135.16 138.36 135.64C138.107 136.759 137.773 137.859 137.36 138.93C137.177 138.297 137.132 137.632 137.23 136.98C137.231 134.638 138.044 132.369 139.53 130.56C140.223 129.717 140.997 128.943 141.84 128.25C142.007 128.129 142.143 127.972 142.24 127.79L147.15 130.89C147.035 131.004 146.949 131.145 146.9 131.3V131.31ZM148.68 129.98L142 126.2C143.14 124.55 144.4 123 145.69 121.46L152.06 125.54L148.68 129.98ZM162.59 109.11C161.99 112.85 159.91 115.25 157.65 118.17C156.13 120.17 154.65 122.1 153.13 124.08L146.82 120.08C150.26 115.95 154.36 110.79 154.02 105.67C153.73 101.34 150.12 97.67 146.31 95.93C141 93.5 135 95.88 130.94 100C130.345 97.8944 130.179 95.691 130.45 93.52C130.721 91.349 131.425 89.2544 132.52 87.36C143.8 86 156.05 87.98 161 98.36C162.588 101.702 163.142 105.442 162.59 109.1V109.11Z" fill="#0d128a"></path><path d="M107.66 90C108.304 90.0801 108.956 90.0801 109.6 90C111.33 92.73 116.05 95.27 118.36 92.81C120.21 90.81 119.2 86.2 118.29 84.66L118.75 84.15C119.37 83.44 118.88 82.27 118.07 83.15C115.64 85.92 111.97 88.69 108.3 88.3C107.59 88.21 106.85 89.88 107.66 90ZM117.06 85.86C117.83 87.16 118.76 90.42 117.85 91.61L114.93 87.61C115.675 87.0601 116.387 86.4657 117.06 85.83V85.86ZM113.84 88.35L116.53 92C114.58 91.8197 112.769 90.9173 111.45 89.47C112.283 89.1663 113.083 88.7811 113.84 88.32V88.35Z" fill="#0d128a"></path><path d="M69.88 34.43H69.49L70.35 35.95L70.51 36.01C70.5715 35.9658 70.6285 35.9155 70.68 35.86L69.88 34.43Z" fill="#0d128a"></path><path d="M69.09 34.4C69.0594 34.4062 69.0311 34.4206 69.0081 34.4418C68.9852 34.4629 68.9685 34.49 68.96 34.52C68.8401 34.8871 68.8401 35.2829 68.96 35.65C69.2751 35.6518 69.5883 35.6989 69.89 35.79L69.09 34.4Z" fill="#0d128a"></path><path d="M70.07 34.44L70.78 35.72C70.8667 35.6232 70.9407 35.5156 71 35.4C71.0458 35.5858 71.1292 35.7602 71.2451 35.9124C71.3609 36.0647 71.5068 36.1916 71.6736 36.2853C71.8404 36.379 72.0246 36.4375 72.2149 36.4573C72.4052 36.477 72.5975 36.4575 72.78 36.4L71.78 34.58C70.84 34.48 70.17 34.45 70.07 34.44Z" fill="#0d128a"></path><path d="M72.15 34.66L73 36.25C73.0906 36.1778 73.1743 36.0975 73.25 36.01L72.53 34.73L72.15 34.66Z" fill="#0d128a"></path><path d="M74.74 35.18C74.3294 35.0049 73.8943 34.8936 73.45 34.85C73.45 34.85 73.38 34.85 73.34 34.85C73.15 34.85 72.96 34.76 72.77 34.73L73.39 35.84C73.5068 35.6696 73.601 35.4847 73.67 35.29L74.07 35.38C74.29 35.45 74.95 35.68 74.7 35.86C74.62 35.92 74.52 36.03 74.54 36.14C74.6 36.64 75.56 35.59 74.74 35.18Z" fill="#0d128a"></path><path d="M68 35.05C67.45 35.05 67.91 35.96 68.13 36.05L68.43 35.94C68.51 35.63 68.49 35 68 35.05Z" fill="#0d128a"></path><path d="M72.11 36.7C71.9573 36.9066 71.7606 37.0766 71.534 37.1977C71.3074 37.3188 71.0566 37.3879 70.8 37.4C70.62 37.4 70.44 37.8 70.64 37.82C70.962 37.8063 71.2767 37.72 71.5607 37.5676C71.8447 37.4152 72.0906 37.2007 72.28 36.94C72.44 36.77 72.31 36.48 72.11 36.7Z" fill="#0d128a"></path></svg>