<svg xmlns="http://www.w3.org/2000/svg" viewBox="0 0 200 200" height="52" width="52"><g transform="matrix(0.5,0,0,0.5,0,0)"><g transform="matrix(2,0,0,2,0,0)"><g fill="#000000"><path d="M132 111.83h-.06zM48.5 141c.38.06 2.46.16 2.46-.2 0-.21-.38-.2-.38-.2.05-1.6 2.08-2 3.53-1.16a5.56 5.56 0 0 1 1.1.83c-2.05.11-4.77 1.51-4.59 3.54a3.57 3.57 0 0 0 1.87 2.49 5.64 5.64 0 0 0 4.23 1.06 5.85 5.85 0 0 0 3.28-2.22 7.6 7.6 0 0 0 5-1.67.56.56 0 0 0 .21-.39c0-.35 0-.33-2-2.55a.53.53 0 0 0-.86.1.85.85 0 0 0-.09.14 1.47 1.47 0 0 1-1.71.72c-1-.29-2.29-2.94-4.64-4.52-2.05-1.38-4.8-1.79-6.74-.15a5.35 5.35 0 0 0-1.7 2.74 1.36 1.36 0 0 0 .06 1 1.58 1.58 0 0 0 .97.44zm3.76 3.71a1.34 1.34 0 0 1-.37-1.78 3.8 3.8 0 0 1 1.77-1.34 16.09 16.09 0 0 0-1.4 3.07zm9.42-1.58c.24-.72 0-.47.4-.65a2.89 2.89 0 0 0 .81-.6l.91 1.08a7.46 7.46 0 0 1-2.46 1c.1-.26.26-.66.34-.88zm-3.62-2.55c.95 1.19 1.74 2.25 3.19 2.13a7.89 7.89 0 0 0-.5 1.34c-.73.05-.83-.12-1.12 0-.57.22-1.51 2.27-3.79 2.26a3.31 3.31 0 0 0 .27-1 4.07 4.07 0 0 0 1.76-.83 1.19 1.19 0 0 0 .4-.74c0-.35-.12-.8-.86-1.39a9.87 9.87 0 0 0 .65-1.82zm-3.36 3.78c-.88-.47.62-1.3 1.59-1.27a1.18 1.18 0 0 1 1.06.68 1.86 1.86 0 0 1-2.65.54zm1.18-6.12a12.76 12.76 0 0 1 1.84 1.93A7.78 7.78 0 0 0 57 142a3.19 3.19 0 0 0-2.52.33c-1.83 1-1.4 3.19 1.14 2.94a3.71 3.71 0 0 0-.33.91 6.26 6.26 0 0 1-2.76-1.31 14.1 14.1 0 0 0 1.64-3.55 3.21 3.21 0 0 1 2.49-.08l.21-.79-.22-.1c-.47-.32-.68-.57-1.22-1a4.73 4.73 0 0 0 .45-1.16zm-3.88-1.6a5.9 5.9 0 0 1 3.46 1.2 6.13 6.13 0 0 0-.4 1.27 3.67 3.67 0 0 0-3.44-.59 7.11 7.11 0 0 0 .38-1.88zm-2.29.78a3.68 3.68 0 0 1 1.92-.76 6.48 6.48 0 0 0-.57 2.13 1.92 1.92 0 0 0-.93 1.74 5.13 5.13 0 0 1-2.06-.31 4.24 4.24 0 0 1 1.62-2.8zm-14.94-1.67c-1.8-.78-5.8 1.53-6.53 2.77a1.18 1.18 0 0 0 0 .85c.63 2.39 6.51 10.83 7.6 12.14.19.24.45-.09.28-.37-.52-.86-.46.87 2.2-7.74a2.5 2.5 0 0 0 .68-.4.56.56 0 0 0 0-.75 1.78 1.78 0 0 0-.31-.3l.63-2.33 2.5 1.38a19.06 19.06 0 0 0-1.1 3.92 10.23 10.23 0 0 0-2.8 1.54c-.59.65.34 1.85.92 2.57s1.07 1.21 1.18 1.32.46 0 .43-.18a1.63 1.63 0 0 0-.25-.4 16.78 16.78 0 0 1-1.39-2.66 14 14 0 0 1 2.45-1.16c.31-.11 1.27-.41 1.53-.25a25.54 25.54 0 0 0 4 1.69.23.23 0 0 0 .2-.42l-1.73-1.05a8.8 8.8 0 0 0 .7-2.63l4.27 2.31c.26.15.46-.26.27-.37s-13.15-8.35-15.73-9.48zm-1.52 1.06a1.86 1.86 0 0 1 1.07 0c.23.1.79.4 1.55.82a9.86 9.86 0 0 0-.52 2.19c-.67-.38-1.07-.67-1.6-.58a1.94 1.94 0 0 0-.79.38c.1-.78.19-1.38.29-2.81zm-4 2.2a9 9 0 0 1 3.67-2.12 53.85 53.85 0 0 0-1.12 7.16 29.13 29.13 0 0 1-2.54-5.05zm4.54 8.41c-.55-.91-1.15-1.92-1.72-2.91.34-1.43.45-2.09.66-3.44a18 18 0 0 0 1.89 2.68 17.66 17.66 0 0 0-.82 3.67zm1.75 2.88c-.36-.57-.82-1.34-1.42-2.33a19.37 19.37 0 0 0 .75-3.85c.22.53 2.18-.23 2.71-.43-.39 1.23-1.75 5.51-2.03 6.61zm-.3-6.49a28 28 0 0 1-1.64-3.33l.31-.17c.14.08 3.56 2.1 3.81 2.26a13.68 13.68 0 0 1-2.47 1.24zm3-2.2c-.75-.5-1.77-1.11-2.55-1.56a8.83 8.83 0 0 0 .52-2.2l2.84 1.6c-.05.38-.39 1.16-.75 2.16zm6.62 4-1.54-.93a2.9 2.9 0 0 0-2.13 0 20.44 20.44 0 0 0 .84-3.59l3.62 2a9 9 0 0 0-.73 2.57z"></path><path d="M194.35 149.17c-1.62-15.08-15.58-38.27-23.92-50.94a127.77 127.77 0 0 0 14 .35c1.33 0 4.81-.24 5.48-.37.39-.08.45-.45-.14-.47s-4.79-.22-5.36-.23h-10.17c-1.56.06-4 .2-4.14.2-3-4.57-5.09-7.43-5.11-7.44a.23.23 0 1 0-.28.36c.46.37 20.67 29.9 26.85 50.24 2.45 8.07 3.9 18.2-4 21-18.76 6.7-165.69 8.88-179.58 1-1.93-1.09-2.38-3.36-2-6.42.59-4.25 2.88-10 5.64-16.44 3.11 3 28.91 26.69 33.09 25.8S72.4 154 73.37 151.91a13 13 0 0 0 .88-4.55.83.83 0 0 0-.1-1.09c-1.55-1.54-32.3-25.92-34.28-25.85-1.38.06-3.88 1.48-5.07 2.18A3.53 3.53 0 0 0 31 121a4.85 4.85 0 0 0-2.84 3.14.24.24 0 0 0 .47 0 4.83 4.83 0 0 1 2.68-2.14 2.5 2.5 0 0 1 2.45 1.07l-11.12 4.75a4.92 4.92 0 0 0-2.14-1.29c-1.9-.5-3.18.75-3.94 2.58a.24.24 0 0 0 .41.23c1.28-1.85 2.76-2.48 4.53-1-2.14.95-5.13 2.3-7.23 3.34.15-.24 21.73-39.32 21.73-39.42.95-1.76 2.86-4.91 4.83-5.32a13.08 13.08 0 0 1 2.71-.3c-1.39 2.3-12.67 21-12.69 23.64 0 3 .52 2.53 2.12 3s91.13-.08 91.29-.08c1.55 0 7.61-.2 8.17-.61 1.74-1.28 1.35-3.19.59-5.2-.18-.48-1.09-2.47-2.31-5.13 5.25-1.58 9.2.43 9.56 9 .36 7.41-2.56 9.67-8.15 9.35-4.49-.26-7.59-1.58-8.57.17-1.1 1.95 1.94 6.33 3.26 8.15-.19 0-8.56-.17-10.67-.26a87.43 87.43 0 0 0-8.92.11 26.86 26.86 0 0 0-6.06.83c-.75.37-1.72 2.3-2.13 3.11-.81 1.59-4.5 11.57-5.52 14.45-.6 1.66-2.63 7.16-1.27 8.13-.05 1.07.12 2.5 1.06 3s13.86.86 14.85.88c1.75.05 19.44.28 30.73-.22s16.22-1.58 15.93-1.55a1.61 1.61 0 0 0 1.13-1.26 4.19 4.19 0 0 0-.14-2.22c1.26-2.45-8.27-22.79-10.91-24.22a1.09 1.09 0 0 0-.51-.14c-.53 0-12.39-.5-17-.65-1-1.41-4.25-6.72-3-7.85 1.9-1.66 17.77 6.66 16.92-9.9-.44-7.49-3.89-11.88-10.89-9.34-.61-1.32-5.73-12.26-7.1-15.17a97.51 97.51 0 0 0 15.92-.35 6.78 6.78 0 0 0 2.58 4.79c4 3 19.92 2.55 22.81-1.12a9.48 9.48 0 0 0 1.57-7.79 1.51 1.51 0 0 0 .59-.71c.16-.31 0-.7-.69-.84a15.11 15.11 0 0 0-2.69-.16c0-.82.05-2.35 0-4.09.09-.06.74-.84.81-.93a10.6 10.6 0 0 0 1.86-3.14c.33-.93.46-2-.41-2.52-1.34-.73-2.28.61-2.73 2.11-.42-2.31-1.39-5.7-3.71-5.36-3.94.6-1.22 10.15.06 13.93a12.16 12.16 0 0 0-3.39 0c1.25-3.14 1.89-7.2-1.32-7.81a2.55 2.55 0 0 0-2.62 1 1.39 1.39 0 0 0-2.26-.66c-1.47 1.06-.63 3.49 1.08 4.29a17.72 17.72 0 0 0 0 3.09 11.3 11.3 0 0 0-3.2.07 42.91 42.91 0 0 0-.8-7.27 5.38 5.38 0 0 0 2.22-3.72c.14-1.33-.33-2.44-1.44-2.73-1.39-.36-2.21.61-2.45 2-1.23-1.7-3.64-2.31-4.81-.36-3.75-3.9-5.56-1.72-4.61 0 .71 1.32 2.56 2.06 4 2.47 0 2.24 1 4.13 2.24 6.06.83 1.3 1.76 2.55 2.48 3.47a24.17 24.17 0 0 0-4.65.3c-.94.25-1.09.93-.22 1.42a12.27 12.27 0 0 0-.3 3.58 105.09 105.09 0 0 0-16.11.38c-.34-.73-1.35-2.86-1.47-3.11s.84-3.15 2.19-30.11c6.2-.52 34.08.1 36.64-.89a.88.88 0 0 0 .57-.68c.85-2.79 1.43-26.77 0-29-.35-.55-1.6-.72-2.29-.82-8.91-1.3-46.09-.74-48 .27s-1.1 10.87-.74 12.83c-19.31-.62-63.9.59-68.1 2.16-1 .36-1.37 1.73-1.57 2.76-1.66 8.57 3 36.15 4.56 44.67-.1 0 0 0-1.22 1.9a12.34 12.34 0 0 0-3.09.16c-2.28.35-4.38 3.5-5.54 5.46-.05.1-3 5-3.44 5.8-2.51-.39-14.18-.24-15.66-.16s-3 .19-4.34.29c-.24 0-.26.46 0 .47 2.8.17 3.83.23 6 .26 5.31.08 13.14.3 13.39.27-.52.91-8.22 14.61-9.25 16.55-4.48 8.4-8 16.09-8.21 16.74a15.32 15.32 0 0 0-3.25 2 9.72 9.72 0 0 0-.57 2.74c-.05 1.61.53 2 1.42 2.9a103 103 0 0 0-5.87 15.86 15.85 15.85 0 0 0-.06 6.69 20.8 20.8 0 0 0 2.26 6.3 3.3 3.3 0 0 0 1.81.94c2.63.74 10.78 1.69 13.51 2a15.35 15.35 0 0 0-.17 3.7 13.32 13.32 0 0 0 .55 3.76.23.23 0 0 0 .46-.05 20.24 20.24 0 0 0 .13-3.76 16.72 16.72 0 0 0-.41-3.59c1.38.12 2.71.22 3.87.26a15.49 15.49 0 0 0-.15 3.53 13.37 13.37 0 0 0 .55 3.76.23.23 0 0 0 .46 0 19.89 19.89 0 0 0 .14-3.76 16.07 16.07 0 0 0-.4-3.47c2.23.05 35.05 3 91.73 1.88 15.19-.3 33.45-1 48.49-2.65a15.7 15.7 0 0 0-.17 3.65 13.17 13.17 0 0 0 .56 3.75.23.23 0 1 0 .45 0 18.45 18.45 0 0 0 .14-3.76 17.17 17.17 0 0 0-.43-3.67c1.11-.12 3.68-.44 3.9-.47a15.35 15.35 0 0 0-.16 3.63 13.17 13.17 0 0 0 .55 3.76.23.23 0 0 0 .46-.05 19.37 19.37 0 0 0 .13-3.75 16.52 16.52 0 0 0-.43-3.66c4.51-.61 18.3-2.47 20.18-6.32 2.22-4.39 2.04-10.1 1.12-14.86zm-91-16.1c.11-.27 3.46-1 7.12 0a.23.23 0 1 1 0 .45 18.42 18.42 0 0 1-5.52.14c-.86-.14-1.95-.15-1.63-.59zm51.41 23.78c-9.25 1.76-60.35 1.36-61.12 1s-.84-1.52-.86-2.28c5.54 1.8 59.67.41 62.68-1.18.16.88.2 2.29-.73 2.46zm-19.41-23.67c0-.34 2.2-.53 2.3-.54a25.62 25.62 0 0 1 3.93 0c.73.08 1.74.18 1.66.49s-1.59.44-1.85.48a28.79 28.79 0 0 1-2.94.12c-.66-.02-3.17-.14-3.13-.55zm12.85 3.33a97 97 0 0 1 6.28 14.85 7 7 0 0 1 .35 2c-4.51 1.4-56.49 2.84-61.75 1.33-.25-.07-.32 0-.38-.42-.38-2.72 4.07-13.53 5.1-16.05 18.92-.63 50.2-1.6 50.37-1.71zm-8.42-66.11a11.87 11.87 0 0 1-2.94-2.28c-.39-.59-.3-1 .85-.44.72.33 1.73.92 2.41 1.33a4.84 4.84 0 0 0-.32 1.39zm24 1.79c.8-1.44 1.59-1.85 1.51-1a19.72 19.72 0 0 1-1.82 4.36c-.06-1-.13-1.67-.21-2.33.04-.14.24-.56.49-1.03zm-4.25 8.7c.2.57.33.91.34.93a.23.23 0 0 0 .3.13c.44-.17-.21-.58-1.25-6.61-.31-1.8-1.23-7.35.59-7.61 1.48-.22 2.28 3.45 2.56 4.9a64.69 64.69 0 0 1 1 8.46.23.23 0 0 0 .45.07 1.54 1.54 0 0 0 0-.17 12.58 12.58 0 0 1 2.68.37 1.11 1.11 0 0 1-.41.3c-2.1 1.08-8.45.87-10.64.83.3-.6.51-1.06.74-1.61a11.32 11.32 0 0 0 3.61.01zm-7.8-2.19c.23-2 .74-5.19 2.76-4.81s1.51 3.31 1.07 5.27a31.08 31.08 0 0 1-1 3.32h-3a33.7 33.7 0 0 1 .14-3.78zm-1.27-4.7a.46.46 0 0 1 .68.05 3.6 3.6 0 0 1 .43.52 7.91 7.91 0 0 0-.59 2c-.52-.72-1.19-2.03-.52-2.57zm-3.15-6.08c1.3.41.28 3.83-.59 4.87a14.94 14.94 0 0 0-1.07-3.12c.29-.88.78-2.03 1.66-1.76zM144.85 81c.49.62.81 1 .81 1a.23.23 0 0 0 .36-.28s-1.77-2.52-3.23-5.13c-1.1-2-2.15-4-1.86-6.21.23-1.74 1.15-2.48 2.7-1.47 2.24 1.44 3.26 10.32 3.58 13a.34.34 0 0 0 .24.31c.27 0 .23-.29.22-.43s0-.84 0-.91a12.75 12.75 0 0 0 3.2 0c.06.73.13 1.3.18 1.6-3.55 0-7.84.24-10.78-.91a32.3 32.3 0 0 1 4.58-.57zm-4.79 1.47a15.22 15.22 0 0 0 4.57 1c1.77.16 13.82.18 15.19.11a18.38 18.38 0 0 0 6.05-1.13 9 9 0 0 1-1.87 6.97c-2.43 2.85-17.8 3.5-21.49.9-2.43-1.67-2.87-5.01-2.45-7.86zM132 111.83c.21.67-95.14.7-95.24.69-4 0-3 0-4.34-.33-.36-.08-.43-.08-.5-.43a7.49 7.49 0 0 1-.07-1.66.21.21 0 0 0 .23.11s99.89-1.36 100.54-1.38c.27 1.17.31 2.26-.62 3zm28.13-60.69s.06-.1.08-.07-.08.06-.13.07zM110.4 25.92c0-.65.26-3.11.84-3.41 1.32-.66 43.27-1.22 49 .57 1 2.1.68 25.69-.16 28.06-4.92.77-29.68.71-36.12 1.37.39-7.87.56-14.5.24-15.79a1.16 1.16 0 0 0-.75-.71c-2.19-.95-10.43-1.22-12.83-1.3a54.16 54.16 0 0 1-.22-8.79zM41.25 51.1c-.15-2.1-.89-12.7 1.11-13.44 1-.35 4.52-.7 9.63-1 9.79-.61 25.22-1.1 39.26-1.2 3.12 0 29.48-.23 32.06 1.54.76 3.46-1.67 41.9-2.21 45.61-23.63.77-51.63 1.93-75.46 1.35-.4-2.29-3.46-19.96-4.39-32.86zm4.08 33.53a.43.43 0 0 0 0-.07c16.85.52 69.58-1.21 76-1.25.71 1.65 10.68 23.77 11.1 25-.11 0-100.43 1.36-100.56 1.46 1.26-4.22 11.68-22.06 13.46-25.14zm27.49 67c-.74 1.44-23.16 11.46-27.77 12.85a5.85 5.85 0 0 0 .1-1.4c6.81-2.36 21.59-8.59 28.22-13a7.64 7.64 0 0 1-.55 1.56zm.69-2.21c-2 1.18-3.91 2-28.37 13.12a5 5 0 0 0-.18-1.34c3.2-1.5 24.9-9.91 28.77-13.26-.05.43-.12.95-.22 1.49zM22 128.9a3.67 3.67 0 0 1 .42 4.14c-.16.25.22.51.38.25a3.86 3.86 0 0 0 .27-4.89c4.86-2.23 9.64-4.33 10.95-4.9a5 5 0 0 1 .06 4.29c-.12.32.24.44.41.23a4.74 4.74 0 0 0 .54-5c1.08-.61 3.6-2 4.83-2 1.54 0 32.79 25.42 33.37 26-2.61 2.69-26.84 12.28-28.88 13.26-4.3-1-30.54-23.57-33-25.89 1.53-1.27 8.93-4.69 10.65-5.49zm-11.41 5.95c3.12 3.05 29.15 25.77 33.51 26.49a4.67 4.67 0 0 0-.12 1.15c-7-3.42-27-20.74-33.62-26.31.03 0 .18-.98.26-1.33zm.15 3.43a2.45 2.45 0 0 1-.4-1.45c6.54 6.6 25 22.83 33.63 26.21a6 6 0 0 0 .16 1.59c-5.13-1.15-32.71-25.53-33.36-26.35zm182 25.42c-6.46 12.82-181.76 9.47-184.6 4.47a19.91 19.91 0 0 1-2.4-6.77 4.38 4.38 0 0 0 1.84 2c14.72 8.57 161.17 6.33 180.29-.54 4.05-1.46 6.09-4.61 6.55-9a20.07 20.07 0 0 1-1.7 9.84z"></path><path d="M43 95.69c70.71 1 77.46.39 79.44.08.47-.07.77-.23.75-.78 0-1.45-3.4-8.1-4.3-8.56-.4-.21-72 .8-72.25.88a.34.34 0 0 0-.22.17c-.68 1.11-4 6.59-3.85 7.83a.45.45 0 0 0 .43.38zM46.93 88c.72-.09 71.16-.79 71.59-.75a27.29 27.29 0 0 1 2 3.37c-1.64 0-74.94.39-75.32.4.44-.88 1.02-1.88 1.73-3.02zm-2 3.5c.39 0 74.56-.38 75.83-.41a18.77 18.77 0 0 1 1.55 3.86c-3.56.57-36 .29-78.95 0a19.51 19.51 0 0 1 1.55-3.49zm53.26 7.59a2.45 2.45 0 0 0-2.31-1.44c-2.54 0-23.87-.59-25.79.19a16.05 16.05 0 0 0-2.8 5c-.06.44.16.64.43.67 6 .65 25.89 1.27 31.05.32.64-.12.72-.8.59-1.45a24 24 0 0 0-1.17-3.29zM68 102.84a20.18 20.18 0 0 1 2.32-4.59c1.52-.5 21.29.54 25.59.53a1.33 1.33 0 0 1 1.24.74 16.83 16.83 0 0 1 1.13 3.24c-5.07.79-26.6.34-30.28.08zm99.64-2.47c-1.41-1.94-8.48-1.85-10.85-1.78-2 0-9.27.33-9.27 2.29a1 1 0 0 0 .46.79c.19.15-1.12 13.33.68 20.4.59 2.34 1.35 3.5 3.58 4.47 4.28 1.86 11.38 1.45 14.23-2.52.57-1.16.45-4.54.5-5.57 4.43.88 8.06-.92 9-5.69.59-3.07-.17-5.08-1.48-6.3a7 7 0 0 0-6.35-1.3.25.25 0 0 1-.33-.24c0-.53.19-4.12-.17-4.55zm-19 .21c2.7-1.58 13.7-1.7 17.25-.09.12.06.57.29.57.39s-.46.34-.57.39c-2.68 1.21-12.25 1.76-17.28-.08-.35-.19 0-.57 0-.61zm19.78 5.6a5.85 5.85 0 0 1 5.32 1.09c1.08 1 1.62 2.72 1.12 5.27a5.67 5.67 0 0 1-2.82 4.29 7.71 7.71 0 0 1-5.22.4.66.66 0 0 0-.86.44c-.27.76.11 3.83-.44 5.77-2.53 3.43-9 3.74-12.83 2.13-1.94-.83-2.48-1.69-3-3.76-1.34-4.91-1.42-14.91-1.12-19.83 3.15 1.49 14.06 1.92 18.35-.28 0 3.1-.38 3.62.4 4.25a1.3 1.3 0 0 0 1.07.23zm-97.14 21.19a56.27 56.27 0 0 0-8.44-5.92 17.72 17.72 0 0 0-3.65-1.63c-1.07-.28-1.52.27-1.3 1a12.18 12.18 0 0 0 1.77 2.91 45.86 45.86 0 0 0 7.88 7.81C72 135.27 77.78 139.79 82 143a2 2 0 0 0 2.82-.47c.74-.81 1.2-2.23.37-3-.96-.86-6.83-6.39-13.91-12.16zm-9.58-2.22-1.37-2.21a2.54 2.54 0 0 0 1.18-1l2.17.88a2.46 2.46 0 0 0-1.98 2.33zm3.07 2.55a16.5 16.5 0 0 1-2-2c.07-1.21.45-1.75 1.66-1.79a12.16 12.16 0 0 1 2.27 1.41 2.53 2.53 0 0 0-1.93 2.38zm17.1 14.55C80.76 141.32 66 128.8 65.09 128a2.79 2.79 0 0 1 2.13-2.34c3.45 2.56 8.41 6.8 17.06 14a2.31 2.31 0 0 0-2.41 2.59zm79.24 11.08c1.25.85 2.12.46 2.93-.72 2-2.84 9-15.41 9-15.51s.08.09-.25-3.95a.85.85 0 0 0-1.37-.59l-3.42 2.49s-7.59 15.69-7.67 15.83a2.24 2.24 0 0 0 .78 2.45zm10.59-19.55c.06.73.14 1.7.2 2.37a12 12 0 0 0-2.32-.83zm-2.86 2.22a6.65 6.65 0 0 0 2.92 1.16c-.15.26-7.79 14.2-7.87 14.34a2.39 2.39 0 0 0-2.61-1.29c.78-1.45 7.28-13.71 7.56-14.21z"></path><path d="M164.24 116.17a1.4 1.4 0 0 0-.92-.57 14.43 14.43 0 0 0-1.8-.36c.34 2.38.54 5 .53 5.23a.58.58 0 0 1-.63.52.59.59 0 0 1-.52-.64c0-.17-.06-.86-.11-5.21-2-.25-11.63-1-11.25.92 0 .1-.79 5 2.27 7.35s9.18 1.89 11.32-.5a5.29 5.29 0 0 0 1.16-2.54 11.73 11.73 0 0 0-.05-4.2zm2.4-9.05c0 .45-.6 3.89-1 8.51l.48.1a8.42 8.42 0 0 0 5.23-.57 3.56 3.56 0 0 0 1.83-3.22 4.77 4.77 0 0 0-6.54-4.82zm.45.34a4.52 4.52 0 0 1 3.61 1 4.19 4.19 0 0 1 1.34 3.47c-.09 2.57-2.73 3.06-5.26 2.8.12-1.82.22-3.91.31-7.27zM70.3 98.25s.01.01 0 0zm86.08-49.49a1.35 1.35 0 0 0 1.34 1.37 1.37 1.37 0 1 0-1.34-1.37zM46.93 81.75c.23.45.53.5.72.36s63.52-.69 68.23-.94a10.73 10.73 0 0 0 3-.38c2.25-2 3.13-39.39 2.25-41.12-2.25-4.49-72.67-1.6-77-.29-3.45 1.04 1.21 39.18 2.8 42.37zM43.94 41c0-.18.22-.88.39-.93 4.79-1.44 74.34-3.81 76.23-.05a10 10 0 0 1 .22 2.29c.17 4.36 0 13.7-.45 22.07-.09 1.6-.8 14.71-1.84 15.9-4.15.88-68.1 1.08-70.94 1.19-1.62-3.76-5.12-33.87-3.61-40.47zm113.91-14.29a1.37 1.37 0 1 0-1.34-1.38 1.35 1.35 0 0 0 1.34 1.38z"></path><path d="M63.51 66.2h11.88a5.19 5.19 0 0 0 5.17-5.2v-9.64a5.24 5.24 0 0 0-5.17-5.24H63.51a5.22 5.22 0 0 0-5.24 5.24V61a5.22 5.22 0 0 0 5.24 5.2zm-4.39-14.84A4.43 4.43 0 0 1 63.51 47h11.88a4.42 4.42 0 0 1 4.47 4.41V61a4.45 4.45 0 0 1-4.47 4.43H63.51A4.41 4.41 0 0 1 59.12 61zm36.51 21.98c.2.59.7.46.84.09.19-.53 1.3-4.34 1.44-5 .77-.24-1.4.51 5.31-1.93a.37.37 0 0 0 0-.69L92.94 61.7a.4.4 0 0 0-.57.39s2.71 9.66 3.26 11.25zM93.4 62.77l8.66 3.41c-1.16.43-3.12 1.17-4.06 1.55-.42.16-.59.23-.69.36s.25-.65-1.22 3.88zM117 33.45a.26.26 0 0 0 .26.21c.21 0 6.68.62 8 .27.85-.23 1-1.73 1.08-2.61.1-1.33 0-4.59-.56-5.7-.76-1.5-6.37-1-8-.71a2.92 2.92 0 0 0-1.21.46 1.45 1.45 0 0 0-.35.88 32.4 32.4 0 0 0 .78 7.2zm.29-7.31c1.58-.49 6.08-.68 7.51 0 .49 1.3.75 5.77.16 6.81-.93.24-6.61.24-7.56.25-.03-.78-.49-4.99-.11-7.06zm13.13 7.27a.27.27 0 0 0 .26.21c.21 0 6.68.62 8 .27.85-.23 1-1.73 1.09-2.61.09-1.33 0-4.59-.57-5.7-.76-1.51-6.37-1-8-.71a3.05 3.05 0 0 0-1.21.46 1.52 1.52 0 0 0-.35.88 32.47 32.47 0 0 0 .78 7.2zm.29-7.31c1.58-.5 6.08-.68 7.51 0 .49 1.3.75 5.77.16 6.8-.93.25-6.61.25-7.56.26-.03-.78-.49-4.99-.11-7.06zm13.75 7.75a.26.26 0 0 0 .26.21c.21 0 6.68.62 8 .27.85-.23 1-1.73 1.08-2.61.1-1.33 0-4.59-.56-5.7-.76-1.5-6.37-1-8-.71a3 3 0 0 0-1.21.46 1.45 1.45 0 0 0-.35.88 32.4 32.4 0 0 0 .78 7.2zm.29-7.31c1.58-.49 6.08-.68 7.51 0 .49 1.3.75 5.77.16 6.81-.93.24-6.61.24-7.56.25-.03-.78-.49-4.99-.11-7.06zm-14.24 22.25c.07.2.23.22.26.21.22 0 6.68.62 8 .27.85-.23 1-1.73 1.09-2.61.09-1.33 0-4.59-.56-5.69-.77-1.51-6.38-1-8-.72a3 3 0 0 0-1.22.46 1.52 1.52 0 0 0-.35.89 32.37 32.37 0 0 0 .78 7.19zm.3-7.31c1.58-.49 6.07-.68 7.5 0 .49 1.3.75 5.77.16 6.81-.93.24-6.6.24-7.55.25-.04-.78-.5-4.99-.11-7.06zm23.08-.92c1.6-2.36 3-4.49 3.05-4.59s-.68-1-1.11-.36c-3.06 4.71-2.64 4.26-2.86 4.18-1.76-.64-7.44-.42-8.33.41-.6.56-.37 2.59-.3 3.46-.64-.36-1.13-.62-1.31-.69-.46-.18-.43.27-.18.43l1.56 1a33.6 33.6 0 0 0 .61 3.91.25.25 0 0 0 .26.21c.21 0 6.68.62 8 .27 1.72-.48 1.19-6.79.61-8.23zm-8.58.41a17.54 17.54 0 0 1 7.16-.13L149 46.31c-.35-.2-2.22-1.3-3.78-2.18a17.09 17.09 0 0 1 .09-3.13zm7.67 6.8c-.94.25-6.61.25-7.56.26 0-.4-.15-1.71-.22-3.16l3.8 2.36a.51.51 0 0 0 .49-.24c.32-.41 1.93-2.75 3.57-5.16.31 1.8.41 5.08-.06 5.94zm-39.76-21.39a1.37 1.37 0 1 0-1.35-1.38 1.38 1.38 0 0 0 1.35 1.38z"></path></g></g></g></svg>