<svg width="387" height="387" viewBox="0 0 387 387" fill="none" xmlns="http://www.w3.org/2000/svg">
<path d="M193.5 330.506C276.382 330.506 343.571 326.583 343.571 321.744C343.571 316.905 276.382 312.982 193.5 312.982C110.618 312.982 43.4292 316.905 43.4292 321.744C43.4292 326.583 110.618 330.506 193.5 330.506Z" fill="#F5F5F5"/>
<path d="M242.107 142.888C238.895 146.541 234.661 148.894 230.9 151.851C227.138 154.808 223.639 158.871 223.082 163.902C222.486 169.266 225.35 174.343 225.853 179.715C226.782 189.622 218.825 198.833 209.824 200.334C200.822 201.836 191.666 196.851 185.597 189.429C182.408 185.512 179.854 180.783 179.243 175.574C178.198 166.688 182.865 157.942 182.13 149.018C181.302 138.956 173.879 131.084 166.302 125.264C158.724 119.443 150.241 114.358 145.202 105.867C139.134 95.6429 139.39 81.8038 144.498 70.9756C149.606 60.1473 159.034 52.2215 169.436 47.8407C179.839 43.4599 191.178 42.4227 202.308 42.8097C209.111 43.0729 215.992 43.901 222.308 46.6797C228.624 49.4584 234.359 54.4197 237.239 61.1303C240.667 69.1102 239.684 78.1583 237.68 86.9277C237.215 88.9096 237.151 90.9644 237.491 92.9714C237.831 94.9784 238.569 96.8972 239.661 98.6151C242.345 102.656 244.518 107.013 246.132 111.587C249.692 122.005 249.143 134.877 242.107 142.888Z" fill="#49DC95"/>
<g opacity="0.7">
<path opacity="0.7" d="M242.107 142.888C238.895 146.541 234.661 148.894 230.9 151.851C227.138 154.808 223.639 158.871 223.082 163.902C222.486 169.266 225.35 174.343 225.853 179.715C226.782 189.622 218.825 198.833 209.824 200.334C200.822 201.836 191.666 196.851 185.597 189.429C182.408 185.512 179.854 180.783 179.243 175.574C178.198 166.688 182.865 157.942 182.13 149.018C181.302 138.956 173.879 131.084 166.302 125.264C158.724 119.443 150.241 114.358 145.202 105.867C139.134 95.6429 139.39 81.8038 144.498 70.9756C149.606 60.1473 159.034 52.2215 169.436 47.8407C179.839 43.4599 191.178 42.4227 202.308 42.8097C209.111 43.0729 215.992 43.901 222.308 46.6797C228.624 49.4584 234.359 54.4197 237.239 61.1303C240.667 69.1102 239.684 78.1583 237.68 86.9277C237.215 88.9096 237.151 90.9644 237.491 92.9714C237.831 94.9784 238.569 96.8972 239.661 98.6151C242.345 102.656 244.518 107.013 246.132 111.587C249.692 122.005 249.143 134.877 242.107 142.888Z" fill="white"/>
</g>
<path d="M164.924 102.446C176.534 102.446 185.946 93.0346 185.946 81.4245C185.946 69.8145 176.534 60.4027 164.924 60.4027C153.314 60.4027 143.902 69.8145 143.902 81.4245C143.902 93.0346 153.314 102.446 164.924 102.446Z" fill="#49DC95"/>
<g opacity="0.9">
<path opacity="0.9" d="M167.741 61.9197L170.388 63.4677V65.9987C170.388 65.9987 168.376 65.7201 167.741 64.6287C167.741 64.6287 168.283 64.3965 166.735 63.4677C165.187 62.5389 165.543 61.4553 167.741 61.9197Z" fill="white"/>
<path opacity="0.9" d="M166.278 82.0438L164.73 82.8178C164.73 82.8178 164.274 83.7001 164.366 83.6692C164.459 83.6382 164.026 85.4958 164.119 85.5268C164.212 85.5577 163.236 86.3472 163.236 86.3472L162.78 87.4772V88.7853L164.978 91.7729L166.588 92.6863L165.187 100.364L165.767 100.573L173.074 95.2172L173.562 93.9014L175.729 93.05L176.882 90.0392L178.198 88.4912C178.256 87.9949 178.256 87.4936 178.198 86.9974C178.074 86.9974 177.494 87.2373 177.494 87.2373L176.394 86.4169C175.592 86.2478 174.776 86.1468 173.956 86.115C173.84 86.2388 173.476 84.6986 173.476 84.6986L171.34 84.1026L169.119 82.6397L167.501 82.9416L166.278 82.0438Z" fill="white"/>
<path opacity="0.9" d="M162.13 78.2589H163.314L164.986 79.1413L168.082 79.9153L168.229 80.1629L165.133 80.1165L165.706 79.7527L165.249 79.4663H163.995L164.15 79.3116L162.857 78.6537C162.857 78.6537 162.045 78.4601 162.021 78.553L161.681 78.5917L162.13 78.2589Z" fill="white"/>
<path opacity="0.9" d="M164.552 80.1707L164.266 79.892L163.794 79.9152L163.987 80.1707H164.552Z" fill="white"/>
<path opacity="0.9" d="M171.944 61.9197H171.58L174.15 63.4677L174.56 63.9167L177.122 65.3873L177.625 66.0297L178.036 67.4461L179.405 68.5452L178.763 69.0018L180.226 70.8285H180.729L180.915 70.0545L179.816 67.7712L181.364 68.6226C179.064 65.3953 175.747 63.0346 171.944 61.9197Z" fill="white"/>
<path opacity="0.9" d="M182.664 70.3331H182.269L181.611 69.4662L180.907 71.3858C180.907 71.3858 181.34 73.6226 181.379 73.7619C181.418 73.9013 181.178 74.2186 181.178 74.2186L181.379 76.6877L181.882 77.5545L182.269 79.6521L183.995 82.0283L185.388 80.0313L185.613 80.519C185.589 76.9166 184.568 73.3913 182.664 70.3331Z" fill="white"/>
<path opacity="0.9" d="M172.401 63.9244H171.944V64.4817L172.401 64.7603H172.811V64.3423L172.401 63.9244Z" fill="white"/>
<path opacity="0.9" d="M175.187 65.0312L175.868 65.7666L176.054 66.378L176.743 67.0437L177.014 66.6334L177.517 67.0437V66.587L177.153 66.0375L175.187 65.0312Z" fill="white"/>
<path opacity="0.9" d="M170.388 69.8765C168.886 70.4214 167.42 71.0626 166 71.796C165.642 72.0594 165.361 72.4134 165.185 72.8215C165.01 73.2296 164.946 73.6772 165.001 74.118L163.074 75.2093L163.531 77.3069L163.074 77.5855L162.346 75.8518C161.146 75.6679 159.929 75.6082 158.716 75.6737C157.648 75.8518 157.408 77.9957 157.408 77.9957L158.051 79.7295L159.514 79.8224L159.692 78.8162L161.24 78.9091L160.233 80.8286L162.06 81.0995L162.246 82.454L164.072 83.8472C164.072 83.8472 164.436 84.3038 164.072 84.4819C163.709 84.6599 155.024 79.4586 154.204 78.1815C153.384 76.9044 152.331 73.3827 153.151 70.9136C153.825 68.909 155.063 67.0436 155.473 65.8439C155.477 65.8105 155.477 65.7768 155.473 65.7433C155.494 65.6497 155.495 65.553 155.478 65.4589C155.46 65.3648 155.424 65.275 155.371 65.195C155.319 65.115 155.251 65.0463 155.171 64.9929C155.092 64.9396 155.002 64.9026 154.908 64.8842C154.591 64.7913 153.995 65.1551 153.995 65.1551H152.834L154.041 64.4662L154.545 63.9322L154.87 63.6458L156.054 63.1427L156.038 62.6938C156.727 62.2792 157.485 61.9934 158.275 61.8501L157.408 62.508H158.322L158.507 63.5452H160.334C160.334 63.5452 159.877 63.4213 160.976 62.8176C162.076 62.2139 165.636 61.9198 165.636 61.9198L164.537 63.4678L166.913 64.8068L166.642 65.813L165.001 65.3563V64.8068L163.987 64.2418L163.902 65.3099L163.531 65.7665L163.074 65.4028L161.766 66.6799L164.088 68.8858L164.452 66.0142L167.749 66.7418L170.388 69.8765Z" fill="white"/>
</g>
<path d="M236.271 116.015C235.157 115.334 233.686 114.9 232.587 115.604C231.488 116.309 231.256 118.012 231.24 119.42C229.313 118.313 226.596 119.335 225.575 121.301C225.108 122.314 224.942 123.439 225.095 124.543C225.249 125.648 225.716 126.685 226.441 127.532C227.937 129.208 229.993 130.281 232.223 130.55C234.383 130.875 235.985 130.426 237.2 128.6C238.075 127.292 239.282 126.673 240.211 125.504C242.494 122.601 238.74 117.524 236.271 116.015Z" fill="#49DC95"/>
<path d="M228.701 116.464C228.904 116.25 229.039 115.98 229.088 115.69C229.824 117.137 230.753 118.453 231.604 119.838C231.31 119.544 228.493 116.672 228.701 116.464Z" fill="#49DC95"/>
<path d="M229.731 115.659C229.796 114.922 229.944 114.195 230.172 113.491C230.723 114.066 231.138 114.756 231.387 115.512C231.48 115.892 231.488 116.288 231.41 116.672C231.332 117.056 231.171 117.418 230.938 117.733C230.071 118.886 229.7 116.177 229.731 115.659Z" fill="#49DC95"/>
<path d="M227.277 121.649C227.171 121.673 227.072 121.723 226.991 121.795C226.909 121.868 226.848 121.96 226.812 122.063C226.777 122.166 226.768 122.276 226.788 122.383C226.807 122.491 226.854 122.591 226.924 122.675C226.994 122.759 227.084 122.823 227.185 122.862C227.287 122.901 227.397 122.913 227.505 122.897C227.613 122.881 227.715 122.838 227.801 122.771C227.887 122.704 227.955 122.617 227.997 122.516C228.03 122.414 228.038 122.306 228.022 122.201C228.005 122.095 227.964 121.995 227.901 121.909C227.839 121.822 227.756 121.751 227.662 121.702C227.567 121.653 227.461 121.627 227.355 121.626L227.277 121.649Z" fill="white"/>
<path d="M232.254 129.064C232.363 129.082 232.475 129.063 232.571 129.01C232.734 128.902 232.687 128.623 232.533 128.484C232.364 128.369 232.17 128.297 231.968 128.275C231.314 128.131 230.706 127.83 230.196 127.397C229.686 126.963 229.29 126.412 229.042 125.79C228.941 125.465 228.811 125.149 228.655 124.846C228.253 124.157 227.285 124.072 227.107 124.931C226.952 125.573 227.742 126.479 228.121 126.912C229.171 128.134 230.651 128.905 232.254 129.064Z" fill="white"/>
<path d="M213.508 59.3733C213.511 61.1622 214.044 62.91 215.04 64.3959C216.036 65.8818 217.45 67.0391 219.104 67.7216C220.758 68.404 222.576 68.581 224.331 68.2301C226.085 67.8793 227.695 67.0163 228.959 65.7503C230.223 64.4843 231.083 62.872 231.431 61.1173C231.779 59.3626 231.599 57.5441 230.914 55.8917C230.228 54.2393 229.069 52.8271 227.581 51.8336C226.093 50.84 224.345 50.3098 222.556 50.3098C221.367 50.3108 220.189 50.546 219.091 51.002C217.993 51.4581 216.995 52.126 216.155 52.9676C215.315 53.8092 214.648 54.8081 214.194 55.9072C213.74 57.0063 213.507 58.1841 213.508 59.3733ZM221.047 52.6782C220.75 52.792 220.422 52.792 220.126 52.6782C220.265 53.3129 219.646 53.8702 219.057 54.2262C218.283 54.6442 217.447 54.8144 217.285 54.1333C217.184 53.7308 217.494 53.1503 218.268 52.5853C218.481 52.4272 218.724 52.3158 218.983 52.2584C219.242 52.201 219.51 52.199 219.769 52.2525C219.708 51.8732 220.048 51.4785 220.543 51.2773C221.039 51.076 221.666 51.2773 221.797 51.6488C221.929 52.0203 221.604 52.4924 221.047 52.6782ZM225.443 55.7742C225.259 56.0431 224.978 56.2304 224.659 56.2969C224.34 56.3634 224.008 56.3038 223.732 56.1308C223.456 55.9577 223.257 55.6846 223.178 55.3685C223.099 55.0524 223.145 54.718 223.307 54.4352C223.391 54.2877 223.504 54.1588 223.64 54.0561C223.775 53.9535 223.93 53.8793 224.095 53.838C224.26 53.7967 224.431 53.7891 224.599 53.8157C224.767 53.8423 224.928 53.9026 225.072 53.9928C225.216 54.0831 225.34 54.2015 225.437 54.341C225.534 54.4804 225.602 54.6381 225.637 54.8044C225.671 54.9708 225.672 55.1425 225.639 55.3091C225.605 55.4757 225.539 55.6339 225.443 55.7742ZM221.209 66.1071C221.209 65.9157 221.266 65.7287 221.372 65.5696C221.478 65.4105 221.63 65.2865 221.806 65.2132C221.983 65.14 222.178 65.1209 222.365 65.1582C222.553 65.1955 222.725 65.2877 222.861 65.423C222.996 65.5583 223.088 65.7307 223.126 65.9183C223.163 66.106 223.144 66.3005 223.07 66.4773C222.997 66.6541 222.873 66.8052 222.714 66.9115C222.555 67.0179 222.368 67.0746 222.177 67.0746C221.92 67.0746 221.674 66.9727 221.492 66.7912C221.311 66.6098 221.209 66.3637 221.209 66.1071ZM220.954 62.7866C220.954 62.6413 220.982 62.4974 221.038 62.3631C221.094 62.2288 221.175 62.1068 221.278 62.004C221.381 61.9012 221.503 61.8197 221.637 61.7641C221.771 61.7084 221.915 61.6798 222.061 61.6798H222.138C222.006 60.9819 222.058 60.2615 222.289 59.5899C222.52 58.9182 222.923 58.3184 223.456 57.8496C223.99 57.3808 224.636 57.0592 225.332 56.9165C226.028 56.7738 226.749 56.8149 227.424 57.0358C227.525 56.7985 227.681 56.5883 227.878 56.4222C228.075 56.2562 228.309 56.139 228.56 56.0802C228.811 56.0213 229.072 56.0225 229.323 56.0835C229.574 56.1446 229.806 56.2638 230.002 56.4316C230.198 56.5994 230.351 56.8109 230.45 57.0491C230.549 57.2873 230.59 57.5455 230.571 57.8026C230.551 58.0597 230.471 58.3086 230.337 58.5291C230.203 58.7495 230.02 58.9353 229.801 59.0714C230.072 59.6087 230.222 60.1993 230.24 60.8012C230.257 61.4031 230.142 62.0014 229.902 62.5535C229.661 63.1057 229.302 63.598 228.85 63.9955C228.398 64.393 227.863 64.6859 227.285 64.8532C227.359 64.9755 227.402 65.1147 227.407 65.2578C227.413 65.4009 227.382 65.5431 227.318 65.671C227.254 65.7989 227.158 65.9084 227.04 65.989C226.921 66.0697 226.785 66.1189 226.642 66.1321C226.499 66.1452 226.356 66.1219 226.225 66.0643C226.094 66.0066 225.979 65.9165 225.893 65.8026C225.806 65.6886 225.75 65.5544 225.729 65.4127C225.709 65.271 225.725 65.1264 225.776 64.9925C225.14 64.9326 224.527 64.7231 223.988 64.3811C223.579 64.1411 223.215 63.8321 222.912 63.4678C222.809 63.597 222.679 63.7012 222.53 63.7723C222.381 63.8434 222.218 63.8795 222.053 63.878C221.763 63.876 221.486 63.7606 221.281 63.5566C221.075 63.3526 220.958 63.0762 220.954 62.7866ZM218.523 56.3392C218.507 56.1827 218.536 56.0247 218.606 55.8838C218.676 55.7429 218.785 55.6249 218.92 55.5437C219.055 55.4625 219.21 55.4214 219.367 55.4252C219.524 55.429 219.677 55.4776 219.808 55.5652C219.821 55.2744 219.935 54.9971 220.129 54.7804C220.324 54.5637 220.587 54.4208 220.875 54.3761C221.162 54.3313 221.457 54.3875 221.708 54.5349C221.959 54.6824 222.151 54.9121 222.252 55.1852C222.353 55.4582 222.356 55.7578 222.261 56.0331C222.167 56.3084 221.98 56.5424 221.732 56.6956C221.485 56.8488 221.192 56.9116 220.903 56.8734C220.615 56.8353 220.348 56.6985 220.149 56.4863C220.1 56.6466 220.005 56.7889 219.876 56.895C219.746 57.0012 219.588 57.0664 219.421 57.0823C219.204 57.1017 218.988 57.0345 218.819 56.8954C218.651 56.7562 218.545 56.5564 218.523 56.3392ZM217.324 63.9399C217.324 63.8159 217.36 63.6947 217.429 63.5916C217.498 63.4885 217.596 63.4081 217.711 63.3607C217.825 63.3132 217.951 63.3008 218.073 63.325C218.194 63.3492 218.306 63.4089 218.394 63.4966C218.482 63.5843 218.541 63.696 218.565 63.8176C218.59 63.9392 218.577 64.0653 218.53 64.1798C218.482 64.2944 218.402 64.3923 218.299 64.4612C218.196 64.5301 218.075 64.5668 217.951 64.5668C217.868 64.5668 217.787 64.5506 217.711 64.5191C217.635 64.4876 217.565 64.4414 217.507 64.3832C217.449 64.325 217.403 64.2559 217.371 64.1798C217.34 64.1037 217.324 64.0222 217.324 63.9399ZM216.101 56.8655C216.091 56.7029 216.129 56.5409 216.21 56.3999C216.292 56.2588 216.413 56.1449 216.559 56.0725C216.705 56.0001 216.869 55.9724 217.031 55.9928C217.193 56.0131 217.345 56.0808 217.468 56.1871C217.591 56.2935 217.681 56.434 217.725 56.5909C217.769 56.7478 217.765 56.9141 217.715 57.0692C217.665 57.2242 217.57 57.361 217.443 57.4625C217.315 57.5639 217.161 57.6255 216.999 57.6395C216.777 57.6545 216.559 57.5817 216.391 57.4368C216.223 57.2919 216.119 57.0867 216.101 56.8655Z" fill="#49DC95"/>
<path d="M213.508 59.3733C213.511 61.1622 214.044 62.91 215.04 64.3959C216.036 65.8818 217.45 67.0391 219.104 67.7216C220.758 68.404 222.576 68.581 224.331 68.2301C226.085 67.8793 227.695 67.0163 228.959 65.7503C230.223 64.4843 231.083 62.872 231.431 61.1173C231.779 59.3626 231.599 57.5441 230.914 55.8917C230.228 54.2393 229.069 52.8271 227.581 51.8336C226.093 50.84 224.345 50.3098 222.556 50.3098C221.367 50.3108 220.189 50.546 219.091 51.002C217.993 51.4581 216.995 52.126 216.155 52.9676C215.315 53.8092 214.648 54.8081 214.194 55.9072C213.74 57.0063 213.507 58.1841 213.508 59.3733ZM221.047 52.6782C220.75 52.792 220.422 52.792 220.126 52.6782C220.265 53.3129 219.646 53.8702 219.057 54.2262C218.283 54.6442 217.447 54.8144 217.285 54.1333C217.184 53.7308 217.494 53.1503 218.268 52.5853C218.481 52.4272 218.724 52.3158 218.983 52.2584C219.242 52.201 219.51 52.199 219.769 52.2525C219.708 51.8732 220.048 51.4785 220.543 51.2773C221.039 51.076 221.666 51.2773 221.797 51.6488C221.929 52.0203 221.604 52.4924 221.047 52.6782ZM225.443 55.7742C225.259 56.0431 224.978 56.2304 224.659 56.2969C224.34 56.3634 224.008 56.3038 223.732 56.1308C223.456 55.9577 223.257 55.6846 223.178 55.3685C223.099 55.0524 223.145 54.718 223.307 54.4352C223.391 54.2877 223.504 54.1588 223.64 54.0561C223.775 53.9535 223.93 53.8793 224.095 53.838C224.26 53.7967 224.431 53.7891 224.599 53.8157C224.767 53.8423 224.928 53.9026 225.072 53.9928C225.216 54.0831 225.34 54.2015 225.437 54.341C225.534 54.4804 225.602 54.6381 225.637 54.8044C225.671 54.9708 225.672 55.1425 225.639 55.3091C225.605 55.4757 225.539 55.6339 225.443 55.7742ZM221.209 66.1071C221.209 65.9157 221.266 65.7287 221.372 65.5696C221.478 65.4105 221.63 65.2865 221.806 65.2132C221.983 65.14 222.178 65.1209 222.365 65.1582C222.553 65.1955 222.725 65.2877 222.861 65.423C222.996 65.5583 223.088 65.7307 223.126 65.9183C223.163 66.106 223.144 66.3005 223.07 66.4773C222.997 66.6541 222.873 66.8052 222.714 66.9115C222.555 67.0179 222.368 67.0746 222.177 67.0746C221.92 67.0746 221.674 66.9727 221.492 66.7912C221.311 66.6098 221.209 66.3637 221.209 66.1071ZM220.954 62.7866C220.954 62.6413 220.982 62.4974 221.038 62.3631C221.094 62.2288 221.175 62.1068 221.278 62.004C221.381 61.9012 221.503 61.8197 221.637 61.7641C221.771 61.7084 221.915 61.6798 222.061 61.6798H222.138C222.006 60.9819 222.058 60.2615 222.289 59.5899C222.52 58.9182 222.923 58.3184 223.456 57.8496C223.99 57.3808 224.636 57.0592 225.332 56.9165C226.028 56.7738 226.749 56.8149 227.424 57.0358C227.525 56.7985 227.681 56.5883 227.878 56.4222C228.075 56.2562 228.309 56.139 228.56 56.0802C228.811 56.0213 229.072 56.0225 229.323 56.0835C229.574 56.1446 229.806 56.2638 230.002 56.4316C230.198 56.5994 230.351 56.8109 230.45 57.0491C230.549 57.2873 230.59 57.5455 230.571 57.8026C230.551 58.0597 230.471 58.3086 230.337 58.5291C230.203 58.7495 230.02 58.9353 229.801 59.0714C230.072 59.6087 230.222 60.1993 230.24 60.8012C230.257 61.4031 230.142 62.0014 229.902 62.5535C229.661 63.1057 229.302 63.598 228.85 63.9955C228.398 64.393 227.863 64.6859 227.285 64.8532C227.359 64.9755 227.402 65.1147 227.407 65.2578C227.413 65.4009 227.382 65.5431 227.318 65.671C227.254 65.7989 227.158 65.9084 227.04 65.989C226.921 66.0697 226.785 66.1189 226.642 66.1321C226.499 66.1452 226.356 66.1219 226.225 66.0643C226.094 66.0066 225.979 65.9165 225.893 65.8026C225.806 65.6886 225.75 65.5544 225.729 65.4127C225.709 65.271 225.725 65.1264 225.776 64.9925C225.14 64.9326 224.527 64.7231 223.988 64.3811C223.579 64.1411 223.215 63.8321 222.912 63.4678C222.809 63.597 222.679 63.7012 222.53 63.7723C222.381 63.8434 222.218 63.8795 222.053 63.878C221.763 63.876 221.486 63.7606 221.281 63.5566C221.075 63.3526 220.958 63.0762 220.954 62.7866ZM218.523 56.3392C218.507 56.1827 218.536 56.0247 218.606 55.8838C218.676 55.7429 218.785 55.6249 218.92 55.5437C219.055 55.4625 219.21 55.4214 219.367 55.4252C219.524 55.429 219.677 55.4776 219.808 55.5652C219.821 55.2744 219.935 54.9971 220.129 54.7804C220.324 54.5637 220.587 54.4208 220.875 54.3761C221.162 54.3313 221.457 54.3875 221.708 54.5349C221.959 54.6824 222.151 54.9121 222.252 55.1852C222.353 55.4582 222.356 55.7578 222.261 56.0331C222.167 56.3084 221.98 56.5424 221.732 56.6956C221.485 56.8488 221.192 56.9116 220.903 56.8734C220.615 56.8353 220.348 56.6985 220.149 56.4863C220.1 56.6466 220.005 56.7889 219.876 56.895C219.746 57.0012 219.588 57.0664 219.421 57.0823C219.204 57.1017 218.988 57.0345 218.819 56.8954C218.651 56.7562 218.545 56.5564 218.523 56.3392ZM217.324 63.9399C217.324 63.8159 217.36 63.6947 217.429 63.5916C217.498 63.4885 217.596 63.4081 217.711 63.3607C217.825 63.3132 217.951 63.3008 218.073 63.325C218.194 63.3492 218.306 63.4089 218.394 63.4966C218.482 63.5843 218.541 63.696 218.565 63.8176C218.59 63.9392 218.577 64.0653 218.53 64.1798C218.482 64.2944 218.402 64.3923 218.299 64.4612C218.196 64.5301 218.075 64.5668 217.951 64.5668C217.868 64.5668 217.787 64.5506 217.711 64.5191C217.635 64.4876 217.565 64.4414 217.507 64.3832C217.449 64.325 217.403 64.2559 217.371 64.1798C217.34 64.1037 217.324 64.0222 217.324 63.9399ZM216.101 56.8655C216.091 56.7029 216.129 56.5409 216.21 56.3999C216.292 56.2588 216.413 56.1449 216.559 56.0725C216.705 56.0001 216.869 55.9724 217.031 55.9928C217.193 56.0131 217.345 56.0808 217.468 56.1871C217.591 56.2935 217.681 56.434 217.725 56.5909C217.769 56.7478 217.765 56.9141 217.715 57.0692C217.665 57.2242 217.57 57.361 217.443 57.4625C217.315 57.5639 217.161 57.6255 216.999 57.6395C216.777 57.6545 216.559 57.5817 216.391 57.4368C216.223 57.2919 216.119 57.0867 216.101 56.8655Z" fill="#49DC95"/>
<path d="M217.324 63.9399C217.324 64.1062 217.39 64.2657 217.507 64.3832C217.625 64.5008 217.784 64.5669 217.951 64.5669C218.117 64.5669 218.276 64.5008 218.394 64.3832C218.512 64.2657 218.578 64.1062 218.578 63.9399C218.578 63.7736 218.512 63.6142 218.394 63.4966C218.276 63.379 218.117 63.313 217.951 63.313C217.784 63.313 217.625 63.379 217.507 63.4966C217.39 63.6142 217.324 63.7736 217.324 63.9399Z" fill="#E6E6E6"/>
<path d="M217.239 63.9399C217.239 63.7972 217.281 63.6577 217.36 63.5392C217.44 63.4206 217.553 63.3284 217.685 63.2741C217.817 63.2199 217.962 63.2061 218.102 63.2345C218.242 63.2629 218.37 63.3322 218.47 63.4337C218.57 63.5351 218.638 63.6641 218.665 63.8043C218.692 63.9444 218.677 64.0894 218.621 64.2207C218.565 64.3521 218.472 64.464 218.353 64.5422C218.233 64.6203 218.093 64.6612 217.951 64.6597C217.856 64.6597 217.763 64.641 217.676 64.6048C217.589 64.5685 217.511 64.5154 217.444 64.4484C217.378 64.3815 217.326 64.302 217.291 64.2148C217.255 64.1275 217.238 64.034 217.239 63.9399Z" fill="#49DC95"/>
<path d="M221.116 66.1071C221.115 65.8971 221.176 65.6913 221.291 65.5159C221.407 65.3405 221.572 65.2034 221.765 65.122C221.959 65.0405 222.173 65.0184 222.379 65.0584C222.585 65.0985 222.775 65.1989 222.924 65.3468C223.073 65.4948 223.174 65.6837 223.216 65.8897C223.258 66.0956 223.237 66.3092 223.157 66.5034C223.077 66.6976 222.941 66.8636 222.767 66.9805C222.592 67.0974 222.387 67.1598 222.177 67.1598C221.897 67.1598 221.628 67.0491 221.43 66.8519C221.231 66.6547 221.118 66.387 221.116 66.1071Z" fill="#49DC95"/>
<path d="M223.686 56.2618C223.384 56.0704 223.169 55.767 223.09 55.4181C223.012 55.0684 223.073 54.7022 223.26 54.3965C223.378 54.2067 223.541 54.049 223.734 53.9373C223.927 53.8257 224.145 53.7636 224.369 53.7566C224.592 53.7495 224.813 53.7978 225.013 53.8971C225.213 53.9963 225.386 54.1435 225.515 54.3255C225.645 54.5075 225.727 54.7186 225.755 54.9402C225.783 55.1617 225.756 55.3867 225.676 55.5953C225.596 55.8038 225.466 55.9893 225.297 56.1353C225.128 56.2813 224.925 56.3832 224.708 56.4321C224.607 56.4434 224.506 56.4434 224.406 56.4321C224.155 56.4405 223.906 56.3817 223.686 56.2618Z" fill="#49DC95"/>
<path d="M218.755 56.9739C218.663 56.8959 218.586 56.8004 218.53 56.6928C218.475 56.5852 218.441 56.4677 218.43 56.3469C218.419 56.2271 218.433 56.1062 218.47 55.9917C218.507 55.8772 218.567 55.7716 218.647 55.6813C218.723 55.587 218.816 55.509 218.923 55.4518C219.029 55.3946 219.146 55.3594 219.266 55.3485C219.426 55.3408 219.584 55.3699 219.731 55.4336C219.776 55.1032 219.942 54.8013 220.197 54.5864C220.452 54.3715 220.778 54.259 221.112 54.2705C221.445 54.2821 221.762 54.4169 222.002 54.649C222.241 54.881 222.386 55.1937 222.409 55.5265C222.425 55.7025 222.406 55.8798 222.353 56.0484C222.3 56.217 222.214 56.3734 222.1 56.5087C221.987 56.6439 221.847 56.7554 221.69 56.8365C221.533 56.9177 221.362 56.967 221.186 56.9816C221.005 56.9995 220.822 56.9799 220.649 56.9239C220.476 56.868 220.316 56.777 220.18 56.6565C220.11 56.8059 220.001 56.9337 219.865 57.0264C219.729 57.119 219.57 57.1731 219.406 57.1828H219.32C219.114 57.1785 218.915 57.1049 218.755 56.9739Z" fill="#49DC95"/>
<path d="M216.016 56.8733C216 56.6334 216.079 56.397 216.236 56.2146C216.392 56.0322 216.614 55.9182 216.853 55.897C217.093 55.8758 217.331 55.949 217.517 56.1011C217.704 56.2531 217.823 56.4719 217.85 56.7107C217.869 56.9548 217.791 57.1965 217.634 57.3835C217.476 57.5705 217.25 57.6875 217.006 57.7092H216.929C216.7 57.7083 216.48 57.6221 216.311 57.4676C216.142 57.3131 216.037 57.1012 216.016 56.8733Z" fill="#49DC95"/>
<g opacity="0.1">
<path opacity="0.1" d="M217.687 62.6396C217.71 62.6309 217.728 62.614 217.738 62.5924C217.748 62.5708 217.749 62.5461 217.742 62.5235C217.239 61.0452 217.633 58.0807 217.633 58.0498C217.637 58.0379 217.638 58.0253 217.636 58.013C217.634 58.0007 217.628 57.9892 217.621 57.9793C217.613 57.9694 217.603 57.9615 217.592 57.9563C217.581 57.951 217.568 57.9486 217.556 57.9492C217.544 57.9469 217.532 57.9472 217.52 57.95C217.509 57.9528 217.498 57.958 217.488 57.9653C217.479 57.9727 217.471 57.9819 217.465 57.9924C217.46 58.003 217.456 58.0146 217.455 58.0266C217.455 58.1504 217.053 61.0684 217.571 62.5854C217.575 62.5971 217.581 62.6079 217.588 62.6171C217.596 62.6263 217.606 62.6337 217.617 62.6388C217.628 62.644 217.64 62.6467 217.652 62.6468C217.664 62.6469 217.676 62.6445 217.687 62.6396Z" fill="white"/>
</g>
<path opacity="0.1" d="M216.666 63.4678C216.688 63.4768 216.713 63.4768 216.735 63.4678C216.744 63.4598 216.751 63.4502 216.755 63.4396C216.76 63.4289 216.762 63.4174 216.762 63.4058C216.762 63.3942 216.76 63.3828 216.755 63.3721C216.751 63.3615 216.744 63.3519 216.735 63.3439C216.03 62.7851 215.523 62.0145 215.288 61.1458C215.288 61.1314 215.284 61.1173 215.277 61.1047C215.27 61.092 215.261 61.0811 215.249 61.0728C215.237 61.0645 215.224 61.0591 215.209 61.0569C215.195 61.0547 215.181 61.0558 215.167 61.0602C215.153 61.0645 215.141 61.072 215.131 61.082C215.12 61.092 215.112 61.1042 215.108 61.1178C215.103 61.1313 215.101 61.1458 215.103 61.1601C215.105 61.1743 215.11 61.188 215.118 61.1999C215.361 62.0957 215.885 62.8902 216.612 63.4678C216.62 63.4714 216.629 63.4732 216.639 63.4732C216.648 63.4732 216.657 63.4714 216.666 63.4678Z" fill="white"/>
<path opacity="0.1" d="M220.59 64.7371C220.615 64.7371 220.638 64.7273 220.656 64.7099C220.673 64.6925 220.683 64.6689 220.683 64.6442C220.683 64.6196 220.673 64.596 220.656 64.5786C220.638 64.5612 220.615 64.5514 220.59 64.5514C220.151 64.5376 219.717 64.4647 219.297 64.3346C219.286 64.3311 219.273 64.3298 219.261 64.331C219.249 64.3322 219.237 64.3357 219.227 64.3415C219.216 64.3472 219.206 64.3551 219.198 64.3645C219.191 64.374 219.185 64.3849 219.181 64.3966C219.178 64.4082 219.177 64.4205 219.178 64.4327C219.179 64.4449 219.182 64.4567 219.188 64.4675C219.194 64.4783 219.202 64.4878 219.211 64.4956C219.221 64.5033 219.232 64.5091 219.243 64.5127C219.679 64.6415 220.128 64.7169 220.582 64.7371H220.59Z" fill="white"/>
<path opacity="0.1" d="M217.293 66.3083C217.312 66.3091 217.33 66.3034 217.346 66.2921C217.361 66.2809 217.373 66.2648 217.378 66.2464L217.687 65.1086C217.691 65.097 217.692 65.0847 217.691 65.0725C217.69 65.0603 217.686 65.0485 217.68 65.0377C217.675 65.0269 217.667 65.0174 217.657 65.0097C217.648 65.0019 217.637 64.9961 217.625 64.9925C217.602 64.9879 217.577 64.9925 217.557 65.0055C217.537 65.0185 217.523 65.0388 217.517 65.0622L217.207 66.1922C217.204 66.2039 217.203 66.2162 217.204 66.2284C217.205 66.2405 217.209 66.2524 217.214 66.2632C217.22 66.2739 217.228 66.2835 217.237 66.2912C217.247 66.299 217.258 66.3048 217.269 66.3083H217.293Z" fill="white"/>
<path opacity="0.1" d="M215.35 64.7448C215.813 64.7188 216.267 64.5976 216.681 64.3888C216.697 64.3756 216.708 64.3575 216.713 64.3373C216.717 64.3171 216.715 64.2961 216.706 64.2774C216.697 64.2588 216.682 64.2436 216.663 64.2344C216.645 64.2251 216.624 64.2222 216.604 64.2263C216.208 64.4232 215.776 64.539 215.334 64.5668C215.311 64.5688 215.289 64.5794 215.274 64.5966C215.258 64.6138 215.249 64.6363 215.249 64.6597C215.253 64.6836 215.265 64.7054 215.284 64.721C215.302 64.7367 215.326 64.7451 215.35 64.7448Z" fill="white"/>
<path opacity="0.1" d="M218.81 63.0111C218.827 63.0111 218.843 63.0069 218.858 62.9988C218.873 62.9907 218.886 62.9789 218.895 62.9646C219.251 62.1906 220.574 59.5822 220.582 59.559C220.593 59.5374 220.595 59.5124 220.588 59.4892C220.581 59.4661 220.565 59.4467 220.543 59.4352C220.526 59.4214 220.504 59.4139 220.482 59.4139C220.459 59.4139 220.437 59.4214 220.42 59.4352C220.42 59.4352 219.081 62.0745 218.725 62.8485C218.72 62.8591 218.717 62.8707 218.716 62.8824C218.716 62.8941 218.718 62.9058 218.722 62.9167C218.727 62.9276 218.733 62.9375 218.742 62.9458C218.75 62.954 218.76 62.9604 218.771 62.9646L218.81 63.0111Z" fill="white"/>
<path opacity="0.1" d="M220.528 67.1365C220.544 67.1368 220.56 67.1326 220.573 67.1244C220.587 67.1162 220.598 67.1043 220.605 67.0901C220.621 67.0731 220.629 67.051 220.629 67.0282C220.629 67.0053 220.621 66.9833 220.605 66.9662C219.785 66.4816 219.102 65.7939 218.624 64.9693C218.607 64.9541 218.585 64.9457 218.562 64.9457C218.539 64.9457 218.517 64.9541 218.5 64.9693C218.486 64.987 218.479 65.0088 218.479 65.0313C218.479 65.0537 218.486 65.0755 218.5 65.0932C218.991 65.9495 219.695 66.6642 220.543 67.1675L220.528 67.1365Z" fill="white"/>
<path d="M217.556 54.5513C217.462 54.511 217.38 54.4482 217.317 54.3685C217.253 54.2889 217.21 54.1948 217.192 54.0946C217.076 53.6147 217.471 52.9955 218.214 52.4847C218.639 52.1856 219.159 52.0508 219.676 52.1054C219.714 51.8817 219.816 51.6738 219.97 51.5074C220.124 51.3409 220.323 51.2233 220.543 51.1689C220.818 51.0847 221.112 51.0847 221.387 51.1689C221.505 51.1994 221.614 51.2573 221.706 51.338C221.797 51.4187 221.868 51.5199 221.913 51.6333C222.06 52.0667 221.681 52.5931 221.07 52.7943C220.797 52.8789 220.506 52.8789 220.234 52.7943C220.234 53.5683 219.39 54.0869 219.104 54.2494C218.739 54.4599 218.332 54.5868 217.912 54.6209C217.789 54.6263 217.667 54.6024 217.556 54.5513Z" fill="#49DC95"/>
<path d="M225.605 65.2944C225.598 65.2276 225.598 65.16 225.605 65.0932C224.991 65.0223 224.401 64.8132 223.879 64.4817C223.513 64.2496 223.186 63.9595 222.912 63.6226C222.776 63.7643 222.608 63.8706 222.422 63.9322C222.236 63.9938 222.037 64.0088 221.844 63.9759C221.651 63.943 221.468 63.8632 221.313 63.7435C221.158 63.6238 221.034 63.4679 220.953 63.2893C220.872 63.1107 220.836 62.915 220.848 62.7193C220.86 62.5235 220.92 62.3337 221.022 62.1665C221.125 61.9993 221.266 61.8597 221.435 61.76C221.604 61.6603 221.795 61.6036 221.991 61.5947C221.96 61.3794 221.945 61.1621 221.944 60.9445C221.941 60.2884 222.092 59.6406 222.387 59.0542C222.681 58.4677 223.11 57.959 223.638 57.5697C224.166 57.1803 224.779 56.9213 225.426 56.8137C226.073 56.7062 226.737 56.7531 227.362 56.9507C227.474 56.7051 227.641 56.4888 227.85 56.3191C228.06 56.1494 228.306 56.0309 228.57 55.9731C228.833 55.9152 229.106 55.9197 229.368 55.9859C229.629 56.0522 229.872 56.1786 230.076 56.355C230.28 56.5314 230.44 56.7529 230.543 57.002C230.646 57.2511 230.69 57.5208 230.671 57.7898C230.652 58.0588 230.57 58.3196 230.432 58.5515C230.295 58.7834 230.105 58.98 229.878 59.1256C230.138 59.6655 230.279 60.2548 230.291 60.8538C230.304 61.4528 230.188 62.0475 229.951 62.5978C229.714 63.1481 229.361 63.6411 228.918 64.0435C228.474 64.446 227.949 64.7485 227.378 64.9306C227.424 65.0464 227.448 65.1698 227.448 65.2944C227.459 65.423 227.444 65.5526 227.403 65.675C227.362 65.7974 227.296 65.9099 227.209 66.0052C227.122 66.1006 227.016 66.1768 226.898 66.2289C226.779 66.281 226.652 66.3079 226.523 66.3079C226.394 66.3079 226.266 66.281 226.148 66.2289C226.03 66.1768 225.924 66.1006 225.837 66.0052C225.75 65.9099 225.683 65.7974 225.642 65.675C225.601 65.5526 225.586 65.423 225.598 65.2944H225.605Z" fill="#49DC95"/>
<g opacity="0.1">
<path opacity="0.1" d="M225.605 65.2944C225.598 65.2276 225.598 65.16 225.605 65.0932C224.991 65.0223 224.401 64.8132 223.879 64.4817C223.513 64.2496 223.186 63.9595 222.912 63.6226C222.776 63.7643 222.608 63.8706 222.422 63.9322C222.236 63.9938 222.037 64.0088 221.844 63.9759C221.651 63.943 221.468 63.8632 221.313 63.7435C221.158 63.6238 221.034 63.4679 220.953 63.2893C220.872 63.1107 220.836 62.915 220.848 62.7193C220.86 62.5235 220.92 62.3337 221.022 62.1665C221.125 61.9993 221.266 61.8597 221.435 61.76C221.604 61.6603 221.795 61.6036 221.991 61.5947C221.96 61.3794 221.945 61.1621 221.944 60.9445C221.941 60.2884 222.092 59.6406 222.387 59.0542C222.681 58.4677 223.11 57.959 223.638 57.5697C224.166 57.1803 224.779 56.9213 225.426 56.8137C226.073 56.7062 226.737 56.7531 227.362 56.9507C227.474 56.7051 227.641 56.4888 227.85 56.3191C228.06 56.1494 228.306 56.0309 228.57 55.9731C228.833 55.9152 229.106 55.9197 229.368 55.9859C229.629 56.0522 229.872 56.1786 230.076 56.355C230.28 56.5314 230.44 56.7529 230.543 57.002C230.646 57.2511 230.69 57.5208 230.671 57.7898C230.652 58.0588 230.57 58.3196 230.432 58.5515C230.295 58.7834 230.105 58.98 229.878 59.1256C230.138 59.6655 230.279 60.2548 230.291 60.8538C230.304 61.4528 230.188 62.0475 229.951 62.5978C229.714 63.1481 229.361 63.6411 228.918 64.0435C228.474 64.446 227.949 64.7485 227.378 64.9306C227.424 65.0464 227.448 65.1698 227.448 65.2944C227.459 65.423 227.444 65.5526 227.403 65.675C227.362 65.7974 227.296 65.9099 227.209 66.0052C227.122 66.1006 227.016 66.1768 226.898 66.2289C226.779 66.281 226.652 66.3079 226.523 66.3079C226.394 66.3079 226.266 66.281 226.148 66.2289C226.03 66.1768 225.924 66.1006 225.837 66.0052C225.75 65.9099 225.683 65.7974 225.642 65.675C225.601 65.5526 225.586 65.423 225.598 65.2944H225.605Z" fill="black"/>
</g>
<path opacity="0.1" d="M225.822 61.1458C225.764 61.1087 225.714 61.06 225.675 61.0027C225.637 60.9455 225.61 60.8809 225.598 60.813C225.583 60.7448 225.582 60.6745 225.595 60.6059C225.607 60.5374 225.634 60.4721 225.672 60.4137C225.71 60.3554 225.759 60.3052 225.817 60.2662C225.875 60.2271 225.94 60.1998 226.008 60.186C226.076 60.1715 226.145 60.1709 226.213 60.1842C226.281 60.1975 226.346 60.2245 226.403 60.2634C226.462 60.3001 226.513 60.3485 226.553 60.4058C226.593 60.463 226.621 60.5278 226.635 60.5962C226.66 60.7354 226.632 60.8787 226.558 60.9987C226.479 61.1128 226.36 61.193 226.225 61.2232H226.109C226.007 61.2283 225.907 61.2012 225.822 61.1458Z" fill="white"/>
<g opacity="0.1">
<path opacity="0.1" d="M217.323 63.8857C217.323 64.0097 217.36 64.1309 217.429 64.234C217.498 64.3371 217.596 64.4175 217.711 64.4649C217.825 64.5124 217.951 64.5248 218.073 64.5006C218.194 64.4764 218.306 64.4167 218.394 64.329C218.481 64.2414 218.541 64.1296 218.565 64.008C218.59 63.8864 218.577 63.7604 218.53 63.6458C218.482 63.5312 218.402 63.4333 218.299 63.3644C218.196 63.2956 218.074 63.2588 217.95 63.2588C217.784 63.2588 217.625 63.3248 217.507 63.4424C217.39 63.56 217.323 63.7195 217.323 63.8857Z" fill="black"/>
<path opacity="0.1" d="M217.238 63.8857C217.238 63.743 217.281 63.6035 217.36 63.485C217.44 63.3664 217.553 63.2742 217.684 63.2199C217.816 63.1657 217.962 63.1519 218.101 63.1803C218.241 63.2087 218.37 63.278 218.47 63.3795C218.57 63.4809 218.638 63.6099 218.665 63.7501C218.692 63.8902 218.677 64.0352 218.621 64.1665C218.565 64.2979 218.472 64.4098 218.352 64.488C218.233 64.5661 218.093 64.607 217.95 64.6055C217.856 64.6055 217.763 64.5868 217.676 64.5506C217.589 64.5143 217.51 64.4611 217.444 64.3942C217.378 64.3273 217.326 64.2478 217.29 64.1606C217.255 64.0733 217.237 63.9798 217.238 63.8857Z" fill="black"/>
<path opacity="0.1" d="M221.116 66.0607C221.115 65.8506 221.176 65.6449 221.291 65.4695C221.407 65.2941 221.572 65.157 221.765 65.0755C221.959 64.9941 222.173 64.972 222.379 65.012C222.585 65.052 222.775 65.1524 222.924 65.3004C223.073 65.4484 223.174 65.6373 223.216 65.8432C223.258 66.0491 223.237 66.2627 223.157 66.4569C223.077 66.6511 222.941 66.8172 222.767 66.934C222.592 67.0509 222.387 67.1133 222.177 67.1133C221.897 67.1133 221.628 67.0027 221.43 66.8055C221.231 66.6083 221.118 66.3406 221.116 66.0607Z" fill="black"/>
<path opacity="0.1" d="M223.686 56.2076C223.536 56.115 223.406 55.9933 223.304 55.8498C223.201 55.7062 223.129 55.5437 223.09 55.3717C223.012 55.0219 223.073 54.6557 223.26 54.35C223.355 54.1975 223.478 54.0652 223.624 53.9605C223.77 53.8558 223.935 53.7809 224.109 53.7399C224.284 53.6989 224.465 53.6928 224.642 53.7217C224.819 53.7507 224.989 53.8143 225.141 53.9088C225.293 54.0034 225.426 54.127 225.531 54.2727C225.635 54.4184 225.71 54.5832 225.751 54.7579C225.792 54.9325 225.798 55.1135 225.769 55.2906C225.74 55.4676 225.677 55.6372 225.582 55.7897C225.388 56.0896 225.086 56.3031 224.739 56.3856C224.388 56.4616 224.021 56.3978 223.717 56.2076H223.686Z" fill="black"/>
<path opacity="0.1" d="M218.756 56.9274C218.57 56.7684 218.454 56.5437 218.43 56.3005C218.419 56.1794 218.432 56.0572 218.469 55.9414C218.506 55.8255 218.567 55.7186 218.647 55.6271C218.803 55.4416 219.025 55.3248 219.266 55.302C219.426 55.2903 219.586 55.3196 219.731 55.3872C219.776 55.092 219.919 54.8204 220.135 54.615C220.352 54.4095 220.631 54.282 220.928 54.2523C221.225 54.2227 221.524 54.2927 221.777 54.4512C222.03 54.6098 222.223 54.848 222.326 55.1283C222.429 55.4087 222.436 55.7153 222.345 55.9999C222.255 56.2845 222.073 56.5311 221.827 56.7007C221.581 56.8704 221.286 56.9536 220.988 56.9372C220.69 56.9207 220.405 56.8057 220.18 56.6101C220.109 56.7585 220 56.8854 219.864 56.9779C219.728 57.0704 219.57 57.1251 219.406 57.1364H219.321C219.114 57.1327 218.915 57.059 218.756 56.9274Z" fill="black"/>
<path opacity="0.1" d="M216.016 56.8191C216.005 56.699 216.018 56.5781 216.054 56.4632C216.091 56.3483 216.15 56.2418 216.227 56.1497C216.305 56.0576 216.4 55.9818 216.507 55.9267C216.614 55.8715 216.731 55.8381 216.851 55.8283C216.971 55.8182 217.092 55.8317 217.207 55.8683C217.322 55.9048 217.428 55.9635 217.52 56.0411C217.612 56.1187 217.688 56.2137 217.743 56.3206C217.798 56.4276 217.832 56.5443 217.842 56.6643C217.852 56.7842 217.839 56.905 217.802 57.0197C217.766 57.1344 217.707 57.2408 217.629 57.3328C217.552 57.4247 217.457 57.5006 217.35 57.5558C217.243 57.6111 217.126 57.6448 217.006 57.655H216.929C216.7 57.654 216.48 57.5679 216.311 57.4134C216.142 57.2588 216.037 57.047 216.016 56.8191Z" fill="black"/>
<path opacity="0.1" d="M217.556 54.5048C217.464 54.4623 217.383 54.3989 217.32 54.3196C217.257 54.2403 217.213 54.1474 217.192 54.0482C217.076 53.5605 217.471 52.9491 218.214 52.4382C218.639 52.137 219.158 51.9996 219.676 52.0512C219.714 51.8286 219.816 51.6218 219.97 51.4567C220.125 51.2916 220.324 51.1754 220.543 51.1225C220.807 51.0302 221.092 51.0167 221.364 51.0837C221.483 51.1098 221.593 51.1652 221.685 51.245C221.777 51.3248 221.848 51.4263 221.89 51.5404C222.037 51.9816 221.658 52.5002 221.046 52.7091C220.774 52.7896 220.483 52.7896 220.211 52.7091C220.211 53.4831 219.367 54.0017 219.08 54.1565C218.718 54.3732 218.31 54.503 217.889 54.5358C217.777 54.546 217.664 54.5355 217.556 54.5048Z" fill="black"/>
</g>
<path d="M203.012 115.976L201.41 109.141L202.316 108.925L203.306 113.151L207.385 104.397L223.245 106.618L223.113 107.539L207.935 105.411L203.012 115.976Z" fill="#49DC95"/>
<path d="M176.472 110.968L175.234 111.928L177.703 114.095L176.673 114.869L174.196 112.694L172.873 113.716L175.775 116.262L174.707 117.036L170.59 113.422L176.317 109.033L180.334 112.563L179.266 113.337L176.472 110.968Z" fill="white"/>
<path d="M180.056 117.895L183.67 121.069L182.679 121.843L179.057 118.669L180.056 117.895ZM182.083 116.347L185.698 119.521L184.7 120.295L181.085 117.121L182.083 116.347Z" fill="white"/>
<path d="M194.328 129.374C194.182 129.545 194.015 129.698 193.833 129.83L191.395 131.704L190.21 130.666L192.532 128.863C192.645 128.778 192.748 128.682 192.842 128.577C192.926 128.497 192.991 128.4 193.032 128.293C193.074 128.185 193.091 128.07 193.082 127.955C193.073 127.84 193.038 127.728 192.981 127.628C192.923 127.528 192.844 127.442 192.749 127.377C192.471 127.136 192.111 127.011 191.744 127.028C191.376 127.046 191.03 127.204 190.775 127.47L188.515 129.196L187.331 128.159L189.653 126.355C189.762 126.272 189.864 126.179 189.955 126.077C190.039 125.998 190.105 125.901 190.147 125.794C190.189 125.687 190.207 125.571 190.198 125.456C190.19 125.341 190.157 125.23 190.1 125.13C190.043 125.029 189.964 124.943 189.87 124.877C189.59 124.631 189.225 124.503 188.853 124.52C188.48 124.538 188.129 124.699 187.873 124.97L185.636 126.688L184.452 125.651L188.856 122.276L189.978 123.259L189.514 123.608C190.145 123.593 190.758 123.824 191.224 124.25C191.49 124.452 191.692 124.725 191.81 125.037C191.928 125.349 191.956 125.688 191.89 126.015C192.276 125.972 192.668 126.011 193.037 126.132C193.407 126.252 193.747 126.449 194.034 126.711C194.247 126.852 194.427 127.038 194.561 127.256C194.694 127.475 194.778 127.719 194.806 127.974C194.834 128.228 194.806 128.485 194.723 128.727C194.64 128.969 194.506 129.19 194.328 129.374Z" fill="white"/>
<path d="M194.15 130.984C194.427 130.653 194.769 130.384 195.155 130.193C195.542 130.002 195.964 129.895 196.395 129.876C196.825 129.858 197.255 129.93 197.656 130.087C198.057 130.245 198.421 130.484 198.724 130.79C199.132 131.084 199.441 131.494 199.614 131.966C199.786 132.437 199.813 132.95 199.692 133.437L198.245 133.058C198.321 132.816 198.321 132.556 198.245 132.314C198.169 132.071 198.02 131.858 197.819 131.704C197.648 131.556 197.449 131.446 197.234 131.38C197.018 131.313 196.792 131.292 196.568 131.317C196.344 131.343 196.127 131.414 195.933 131.527C195.738 131.641 195.568 131.793 195.435 131.974C195.316 132.092 195.225 132.235 195.167 132.392C195.109 132.549 195.086 132.717 195.1 132.883C195.115 133.05 195.165 133.212 195.248 133.357C195.331 133.502 195.445 133.627 195.582 133.724C195.78 133.903 196.021 134.027 196.281 134.086C196.542 134.144 196.813 134.134 197.068 134.057L197.463 135.365C196.971 135.491 196.455 135.491 195.964 135.364C195.473 135.237 195.021 134.986 194.653 134.637C193.353 133.53 193.183 132.083 194.15 130.984Z" fill="white"/>
<path d="M201.379 134.931L202.773 136.162L202.091 136.688L199.444 134.366L199.986 133.94L202.502 134.204C203.105 134.258 203.353 134.204 203.516 134.01C203.678 133.817 203.639 133.53 203.299 133.236C203.16 133.111 202.997 133.016 202.82 132.958C202.643 132.899 202.455 132.878 202.269 132.896L202.091 132.06C202.443 132.012 202.802 132.046 203.138 132.159C203.475 132.272 203.782 132.46 204.034 132.71C204.808 133.368 204.932 134.142 204.46 134.676C204.158 135.024 203.825 135.179 202.687 135.071L201.379 134.931Z" fill="white"/>
<path d="M212.293 153.043L202.354 146.735L223.252 135.821L212.293 153.043ZM203.902 146.797L212.076 151.975L221.047 137.849L203.902 146.797Z" fill="#49DC95"/>
<path d="M212.293 153.043L207.889 150.249L208.082 149.924C208.609 149.037 209.413 148.349 210.369 147.963C211.325 147.577 212.382 147.515 213.376 147.787C213.875 147.924 214.348 148.141 214.777 148.43L215.087 148.646L212.293 153.043ZM208.98 150.009L212.076 151.975L214.05 148.879C213.779 148.732 213.494 148.616 213.198 148.53C212.428 148.322 211.613 148.351 210.86 148.615C210.107 148.879 209.451 149.365 208.98 150.009Z" fill="#49DC95"/>
<path d="M198.771 179.065C198.161 179.134 197.542 179.081 196.953 178.91C196.363 178.738 195.813 178.452 195.334 178.066C194.374 177.289 193.583 176.322 193.012 175.226C192.383 174.167 191.992 172.984 191.867 171.758C191.808 171.145 191.881 170.527 192.081 169.945C192.281 169.363 192.604 168.83 193.028 168.383C193.476 167.99 193.999 167.689 194.565 167.501C195.132 167.312 195.73 167.238 196.325 167.284C197.305 167.329 198.262 167.603 199.116 168.086C199.97 168.57 200.698 169.247 201.241 170.065C201.784 170.882 202.127 171.816 202.241 172.791C202.355 173.766 202.237 174.754 201.898 175.675C201.356 177.246 200.598 178.794 198.771 179.065Z" fill="#49DC95"/>
<path d="M202.138 160.659C204.538 160.846 206.781 161.921 208.43 163.674C210.08 165.428 211.015 167.734 211.054 170.14C211.054 171.789 210.559 173.484 211.054 175.055C211.379 176.062 212.083 176.998 211.967 178.043C211.813 179.421 210.35 180.195 209.073 180.737C207.898 181.319 206.625 181.678 205.319 181.797C204.666 181.844 204.013 181.712 203.431 181.414C202.848 181.117 202.358 180.666 202.014 180.11C201.72 179.529 200.644 177.075 199.994 177.091C199.343 177.106 197.238 178.523 196.464 177.323C195.992 176.588 195.543 176.681 196.278 176.209C195.164 176.309 196.395 178.693 195.334 178.066C192.354 176.309 191.271 171.874 191.077 170.38C190.744 167.772 192.184 165.164 194.258 163.554C196.51 161.775 199.27 160.761 202.138 160.659Z" fill="#49DC95"/>
<g opacity="0.9">
<path opacity="0.9" d="M202.138 160.659C204.538 160.846 206.781 161.921 208.43 163.674C210.08 165.428 211.015 167.734 211.054 170.14C211.054 171.789 210.559 173.484 211.054 175.055C211.379 176.062 212.083 176.998 211.967 178.043C211.813 179.421 210.35 180.195 209.073 180.737C207.898 181.319 206.625 181.678 205.319 181.797C204.666 181.844 204.013 181.712 203.431 181.414C202.848 181.117 202.358 180.666 202.014 180.11C201.72 179.529 200.644 177.075 199.994 177.091C199.343 177.106 197.238 178.523 196.464 177.323C195.992 176.588 195.543 176.681 196.278 176.209C195.164 176.309 196.395 178.693 195.334 178.066C192.354 176.309 191.271 171.874 191.077 170.38C190.744 167.772 192.184 165.164 194.258 163.554C196.51 161.775 199.27 160.761 202.138 160.659Z" fill="white"/>
</g>
<path d="M202.687 168.407C202.836 168.915 202.877 169.45 202.806 169.975C202.735 170.5 202.555 171.005 202.277 171.456C202.04 171.929 201.689 172.336 201.255 172.639C200.821 172.942 200.318 173.131 199.793 173.19C199.275 173.187 198.769 173.031 198.34 172.742C197.91 172.452 197.576 172.043 197.378 171.565C197.195 171.081 197.124 170.562 197.171 170.047C197.218 169.532 197.381 169.035 197.649 168.592C198.113 167.818 199.197 166.665 200.195 166.557C201.193 166.448 202.37 167.462 202.687 168.407Z" fill="#49DC95"/>
<path d="M204.406 167.509C204.475 167.975 204.64 168.422 204.89 168.822C205.141 169.221 205.471 169.565 205.861 169.831C206.23 170.126 206.666 170.325 207.131 170.41C207.595 170.495 208.074 170.464 208.523 170.318C208.944 170.128 209.298 169.816 209.541 169.423C209.784 169.03 209.904 168.574 209.885 168.113C209.859 167.651 209.728 167.202 209.501 166.8C209.274 166.397 208.958 166.052 208.577 165.791C208.179 165.488 207.723 165.268 207.238 165.145C206.753 165.021 206.247 164.996 205.752 165.071C205.303 165.287 204.932 165.638 204.69 166.075C204.449 166.512 204.35 167.013 204.406 167.509Z" fill="#49DC95"/>
<path d="M206.464 171.418C206.761 171.541 207.009 171.758 207.169 172.037C207.205 172.153 207.216 172.275 207.202 172.395C207.187 172.516 207.148 172.632 207.086 172.736C207.024 172.841 206.941 172.931 206.842 173.001C206.742 173.071 206.63 173.12 206.511 173.144C206.268 173.178 206.02 173.142 205.797 173.041C205.573 172.939 205.383 172.776 205.249 172.571C205.249 172.898 205.121 173.211 204.893 173.445C204.78 173.561 204.63 173.634 204.469 173.651C204.308 173.667 204.146 173.628 204.011 173.538C203.915 173.449 203.843 173.337 203.803 173.212C203.762 173.088 203.754 172.955 203.779 172.826C203.84 172.57 203.945 172.327 204.088 172.106C204.266 171.789 204.661 170.729 205.025 170.659C205.388 170.589 206.178 171.263 206.464 171.418Z" fill="#49DC95"/>
<path d="M210.11 174.808C210.11 175.063 210.365 175.427 210.327 175.682C210.026 175.943 209.696 176.169 209.344 176.356C207.377 177.274 205.317 177.975 203.198 178.445C202.938 177.797 202.447 177.268 201.82 176.959C202.164 176.945 202.502 177.045 202.783 177.244C203.063 177.443 203.269 177.729 203.368 178.058C205.699 177.588 207.94 176.752 210.009 175.582C209.924 175.117 209.692 174.281 210.45 174.157C210.427 174.15 210.234 174.15 210.11 174.808Z" fill="#49DC95"/>
<path d="M204.026 95.7513L200.861 94.776L200.342 93.3596L205.257 94.8767L204.026 95.7513Z" fill="#F0F0F0"/>
<path d="M212.997 83.9014C212.714 84.8068 212.244 85.6427 211.618 86.3548C210.991 87.0669 210.221 87.6391 209.359 88.0345C208.784 88.2838 208.269 88.6531 207.849 89.1176C207.428 89.5822 207.112 90.1313 206.921 90.728L206.766 91.2157L201.147 89.4896L201.302 88.9943C201.478 88.3934 201.525 87.762 201.44 87.1417C201.354 86.5213 201.138 85.9261 200.806 85.3952C200.079 84.2014 199.741 82.8107 199.84 81.4162C199.938 80.0216 200.468 78.6923 201.356 77.6126C202.245 76.533 203.447 75.7566 204.796 75.3911C206.146 75.0257 207.575 75.0893 208.887 75.5731C210.502 76.1792 211.826 77.3775 212.589 78.9244C213.353 80.4713 213.498 82.2508 212.997 83.9014Z" fill="#49DC95"/>
<path opacity="0.9" d="M212.997 83.9014C212.714 84.8068 212.244 85.6427 211.618 86.3548C210.991 87.0669 210.221 87.6391 209.359 88.0345C208.784 88.2838 208.269 88.6531 207.849 89.1176C207.428 89.5822 207.112 90.1313 206.921 90.728L206.766 91.2157L201.147 89.4896L201.302 88.9943C201.478 88.3934 201.525 87.762 201.44 87.1417C201.354 86.5213 201.138 85.9261 200.806 85.3952C200.079 84.2014 199.741 82.8107 199.84 81.4162C199.938 80.0216 200.468 78.6923 201.356 77.6126C202.245 76.533 203.447 75.7566 204.796 75.3911C206.146 75.0257 207.575 75.0893 208.887 75.5731C210.502 76.1792 211.826 77.3775 212.589 78.9244C213.353 80.4713 213.498 82.2508 212.997 83.9014Z" fill="white"/>
<path d="M203.392 82.7807L202.701 89.8214L203.102 89.8606L203.792 82.82L203.392 82.7807Z" fill="#49DC95"/>
<path d="M208.339 84.226L204.949 90.4354L205.302 90.6283L208.692 84.4189L208.339 84.226Z" fill="#49DC95"/>
<path d="M205.946 86.68L205.597 85.0314L204.382 86.2001L203.438 84.0639L203.81 83.9014L204.522 85.5035L205.845 84.2264L206.224 86.0299L207.71 85.1011L207.927 85.4494L205.946 86.68Z" fill="#49DC95"/>
<path d="M206.82 91.0454L205.752 94.5206L200.125 92.8101L201.193 89.3348L206.82 91.0454Z" fill="#49DC95"/>
<path d="M200.122 92.8479L200.005 93.2332L205.637 94.9334L205.753 94.5481L200.122 92.8479Z" fill="#49DC95"/>
<path d="M201.698 88.704L201.581 89.0903L207.228 90.7962L207.345 90.4099L201.698 88.704Z" fill="#49DC95"/>
<g opacity="0.2">
<path opacity="0.2" d="M201.698 88.704L201.581 89.0903L207.228 90.7962L207.345 90.4099L201.698 88.704Z" fill="black"/>
</g>
<g opacity="0.2">
<path opacity="0.2" d="M200.122 92.848L200.005 93.2333L205.637 94.9335L205.753 94.5482L200.122 92.848Z" fill="black"/>
</g>
<path d="M88.0814 299.553H125.938V290.141H88.0814V299.553Z" fill="#49DC95"/>
<path opacity="0.6" d="M88.2052 299.6H126.062V290.188H88.2052V299.6Z" fill="white"/>
<path opacity="0.6" d="M88.0813 299.6H117.137V290.188H88.0813V299.6Z" fill="white"/>
<path d="M88.2747 298.361L125.945 299.53L125.899 298.578L88.2515 298.083L88.2747 298.361Z" fill="#49DC95"/>
<path d="M125.945 294.011L88.3291 291.891V292.208L125.945 294.724V294.011Z" fill="#49DC95"/>
<path d="M125.945 291.163L88.3291 292.03V292.332L125.945 291.883V291.163Z" fill="#49DC95"/>
<path d="M126.046 295.854L88.4297 297.688V297.409L126.046 295.227V295.854Z" fill="#49DC95"/>
<path d="M88.1819 290.265L125.791 290.296V290.606H88.1819V290.265Z" fill="#49DC95"/>
<path d="M90.8058 271.519H128.662V262.107H90.8058V271.519Z" fill="#49DC95"/>
<path opacity="0.6" d="M90.922 271.565H128.778V262.154H90.922V271.565Z" fill="white"/>
<path opacity="0.6" d="M90.8058 271.565H119.862V262.154H90.8058V271.565Z" fill="white"/>
<path d="M90.9837 270.327L128.654 271.496L128.616 270.544L90.9683 270.048L90.9837 270.327Z" fill="#49DC95"/>
<path d="M128.654 265.977L91.0457 263.856V264.174L128.654 266.689V265.977Z" fill="#49DC95"/>
<path d="M128.654 263.129L91.0457 263.996V264.305L128.654 263.849V263.129Z" fill="#49DC95"/>
<path d="M128.763 267.819L91.1462 269.654V269.383L128.763 267.192V267.819Z" fill="#49DC95"/>
<path d="M90.3258 290.01H128.182V280.598H90.3258V290.01Z" fill="#49DC95"/>
<path opacity="0.6" d="M90.4498 290.056H128.306V280.644H90.4498V290.056Z" fill="white"/>
<path opacity="0.6" d="M119.467 280.644H90.4111V290.056H119.467V280.644Z" fill="white"/>
<path d="M128.028 288.539L90.3724 289.035L90.3337 289.987L128.004 288.818L128.028 288.539Z" fill="#49DC95"/>
<path d="M90.5735 280.722L128.19 280.761V281.07H90.5735V280.722Z" fill="#49DC95"/>
<path d="M90.3337 285.18L127.942 282.665V282.347L90.3337 284.468V285.18Z" fill="#49DC95"/>
<path d="M128.19 281.62L90.5735 282.487V282.796L128.19 282.34V281.62Z" fill="#49DC95"/>
<path d="M128.291 286.318L90.6743 288.145V287.874L128.291 285.691V286.318Z" fill="#49DC95"/>
<path d="M126.874 271.728L89.0334 271.922L88.9792 281.14H126.874V271.728Z" fill="#49DC95"/>
<path opacity="0.6" d="M89.0255 281.14H126.882V271.728H89.0255V281.14Z" fill="white"/>
<path opacity="0.6" d="M118.035 271.728H88.9792V281.14H118.035V271.728Z" fill="white"/>
<path d="M119.173 271.922H89.0332V272.881H118.53L119.173 271.922Z" fill="#49DC95"/>
<path d="M126.657 275.776L89.0332 276.124V276.403H126.657V275.776Z" fill="#49DC95"/>
<path d="M89.0332 280.134L126.657 278.299V278.578L89.0332 280.76V280.134Z" fill="#49DC95"/>
<path d="M89.0332 276.589L126.657 277.339V277.61L89.0332 277.216V276.589Z" fill="#49DC95"/>
<path d="M136.541 251.256H98.925V255.993H136.541V251.256Z" fill="#49DC95"/>
<path opacity="0.6" d="M136.541 251.256H98.925V255.993H136.541V251.256Z" fill="white"/>
<path opacity="0.6" d="M128.902 251.256H98.925V255.993H128.902V251.256Z" fill="white"/>
<path d="M136.565 254.615L98.9482 254.801V254.94H136.565V254.615Z" fill="#49DC95"/>
<path d="M98.9482 252.842L136.565 251.89V252.03L98.9482 253.167V252.842Z" fill="#49DC95"/>
<path d="M98.8245 252.587L136.441 252.974V253.113L98.8245 252.912V252.587Z" fill="#49DC95"/>
<path d="M131.278 249.166H93.6619V251.449H131.278V249.166Z" fill="#49DC95"/>
<path opacity="0.6" d="M131.278 249.189H93.6619V251.457H131.278V249.189Z" fill="white"/>
<path opacity="0.6" d="M123.639 249.042H93.6619V251.449H123.639V249.042Z" fill="white"/>
<path d="M93.6851 250.907L131.294 249.948V250.095L93.6851 251.232V250.907Z" fill="#49DC95"/>
<path d="M93.6851 249.762L131.294 250.149V250.296L93.6851 250.087V249.762Z" fill="#49DC95"/>
<path d="M134.784 246.836H97.168V249.119H134.784V246.836Z" fill="#49DC95"/>
<path opacity="0.6" d="M134.784 246.852H97.168V249.119H134.784V246.852Z" fill="white"/>
<path opacity="0.6" d="M127.145 246.712H97.168V249.119H127.145V246.712Z" fill="white"/>
<path d="M97.1913 247.866L134.815 248.322L134.808 248.469L97.1758 248.191L97.1913 247.866Z" fill="#49DC95"/>
<path d="M97.1836 247.432L134.8 247.811V247.958L97.1836 247.749V247.432Z" fill="#49DC95"/>
<path d="M133.995 255.993H96.3787V262.099H133.995V255.993Z" fill="#49DC95"/>
<path opacity="0.6" d="M133.995 255.993H96.3787V262.099H133.995V255.993Z" fill="white"/>
<path opacity="0.6" d="M125.404 255.993H96.3787V262.099H125.404V255.993Z" fill="white"/>
<path d="M133.755 257.889L96.1465 257.68V257.51H133.755V257.889Z" fill="#49DC95"/>
<path d="M96.4019 258.779L134.018 259.878V259.715L96.4019 258.407V258.779Z" fill="#49DC95"/>
<path d="M134.018 256H98.5381L99.3198 256.751H134.018V256Z" fill="#49DC95"/>
<path d="M96.5334 261.155L134.142 260.699V260.544L96.5334 260.776V261.155Z" fill="#49DC95"/>
<path d="M194.94 236.457C195.009 239.034 194.94 241.441 194.816 243.926C194.692 246.41 194.522 248.864 194.282 251.341C193.817 256.396 192.905 261.4 191.557 266.294L190.938 268.199L190.783 268.671L190.745 268.795L190.683 268.973L190.489 269.483C190.242 270.074 189.925 270.632 189.545 271.147C188.942 271.983 188.205 272.713 187.362 273.307C186.686 273.802 185.966 274.235 185.211 274.6C182.701 275.774 180.038 276.587 177.3 277.014C172.331 277.829 167.288 278.088 162.261 277.788L161.998 272.85L165.427 272.146C166.58 271.914 167.749 271.627 168.848 271.372C171.116 270.83 173.353 270.25 175.474 269.553C177.437 268.967 179.324 268.149 181.093 267.115C181.569 266.861 181.974 266.491 182.269 266.039C182.269 265.915 182.076 266.434 182.269 265.621L182.649 264.073C183.53 259.616 184.104 255.103 184.367 250.567C184.537 248.245 184.646 245.923 184.754 243.601C184.862 241.279 184.893 238.887 184.924 236.635L194.94 236.457Z" fill="#FFC3BD"/>
<path d="M164.088 273.129L158.67 269.22L157.037 277.463C157.037 277.463 162.377 279.785 163.91 277.076L164.088 273.129Z" fill="#FFC3BD"/>
<path d="M153.175 269.398L152.145 276.279L157.037 277.463L158.662 269.22L153.175 269.398Z" fill="#FFC3BD"/>
<path d="M198.864 229.576C200.048 235.768 195.234 250.311 195.234 250.311L179.568 248.338C181.975 242.827 182.834 234.87 185.868 229.669C188.678 225.002 197.571 222.858 198.864 229.576Z" fill="#49DC95"/>
<path opacity="0.5" d="M198.864 229.576C200.048 235.768 195.234 250.311 195.234 250.311L179.568 248.338C181.975 242.827 182.834 234.87 185.868 229.669C188.678 225.002 197.571 222.858 198.864 229.576Z" fill="black"/>
<path d="M221.248 225.133C221.737 225.197 222.208 225.357 222.636 225.603C223.063 225.849 223.437 226.177 223.738 226.568C224.038 226.959 224.259 227.405 224.387 227.882C224.514 228.358 224.547 228.855 224.483 229.344C224.483 229.382 224.483 229.413 224.483 229.444C223.587 235.486 223.047 241.575 222.865 247.68C222.703 252.811 222.765 257.688 222.935 262.099C223.307 272.44 224.235 280.265 224.174 282.959L189.63 285.846C183.585 258.353 185.559 238.012 187.254 230.598C187.515 229.443 188.098 228.387 188.935 227.55C189.772 226.713 190.829 226.13 191.983 225.868C193.306 225.574 194.893 225.257 196.58 225.009C197.169 224.955 197.772 224.847 198.376 224.777C203.353 224.377 208.348 224.264 213.338 224.437C214.282 224.437 215.234 224.522 216.17 224.584C217.989 224.738 219.769 224.94 221.248 225.133Z" fill="#49DC95"/>
<path opacity="0.5" d="M221.248 225.133C221.737 225.197 222.208 225.357 222.636 225.603C223.063 225.849 223.437 226.177 223.738 226.568C224.038 226.959 224.259 227.405 224.387 227.882C224.514 228.358 224.547 228.855 224.483 229.344C224.483 229.382 224.483 229.413 224.483 229.444C223.587 235.486 223.047 241.575 222.865 247.68C222.703 252.811 222.765 257.688 222.935 262.099C223.307 272.44 224.235 280.265 224.174 282.959L189.63 285.846C183.585 258.353 185.559 238.012 187.254 230.598C187.515 229.443 188.098 228.387 188.935 227.55C189.772 226.713 190.829 226.13 191.983 225.868C193.306 225.574 194.893 225.257 196.58 225.009C197.169 224.955 197.772 224.847 198.376 224.777C203.353 224.377 208.348 224.264 213.338 224.437C214.282 224.437 215.234 224.522 216.17 224.584C217.989 224.738 219.769 224.94 221.248 225.133Z" fill="black"/>
<path d="M211.495 207.664C210.644 212.486 209.87 221.317 213.299 224.46C205.69 230.652 201.209 238.771 199.568 237.238C198.701 236.464 197.463 226.341 198.353 224.754C203.693 223.368 203.477 219.398 202.471 215.675L211.495 207.664Z" fill="#FFC3BD"/>
<path opacity="0.2" d="M207.827 210.93L202.486 215.667C202.737 216.532 202.908 217.418 202.997 218.314C205.048 217.981 207.819 215.675 207.989 213.515C208.09 212.651 208.035 211.775 207.827 210.93Z" fill="black"/>
<path d="M193.5 195.512C190.319 195.93 189.05 201.596 192.726 205.876C196.403 210.156 197.773 194.947 193.5 195.512Z" fill="#263238"/>
<path d="M209.677 198.918C210.629 205.373 211.519 209.104 209.003 213.051C205.203 218.995 196.712 217.757 193.833 211.712C191.255 206.294 190.11 196.634 195.822 192.78C197.075 191.923 198.526 191.4 200.038 191.262C201.55 191.123 203.072 191.373 204.46 191.988C205.848 192.603 207.055 193.562 207.968 194.775C208.881 195.988 209.469 197.414 209.677 198.918Z" fill="#FFC3BD"/>
<path d="M203.632 199.916C203.841 200.562 204.232 201.134 204.758 201.563C205.283 201.993 205.922 202.262 206.596 202.339C207.328 203.715 207.498 205.322 207.068 206.82L209.452 207.13C209.435 206.172 209.785 205.244 210.429 204.534C211.074 203.825 211.964 203.389 212.92 203.314C212.269 205.894 211.495 208.451 210.598 210.984C213.177 208.824 215.162 206.039 216.364 202.896C216.986 201.394 217.278 199.776 217.223 198.152C217.147 196.512 216.423 194.97 215.211 193.864C214.357 193.236 213.367 192.819 212.322 192.648C211.277 192.477 210.205 192.557 209.197 192.881C205.605 193.871 202.014 195.737 203.632 199.916Z" fill="#263238"/>
<path d="M214.088 203.995C213.954 205.629 213.178 207.143 211.929 208.206C210.265 209.607 208.539 208.337 208.253 206.294C207.989 204.46 208.547 201.518 210.575 200.876C212.602 200.234 214.228 202.014 214.088 203.995Z" fill="#FFC3BD"/>
<path d="M200.389 202.788C200.497 203.306 200.311 203.794 199.971 203.864C199.63 203.933 199.266 203.569 199.15 203.051C199.034 202.532 199.228 202.052 199.568 201.983C199.909 201.913 200.28 202.261 200.389 202.788Z" fill="#263238"/>
<path d="M194.537 204.018C194.646 204.537 194.46 205.017 194.119 205.094C193.779 205.172 193.415 204.8 193.307 204.282C193.198 203.763 193.384 203.283 193.717 203.213C194.05 203.144 194.413 203.5 194.537 204.018Z" fill="#263238"/>
<path d="M196.441 203.887C196.152 205.603 195.631 207.272 194.893 208.848C195.302 209.024 195.744 209.109 196.189 209.098C196.633 209.088 197.071 208.981 197.47 208.786L196.441 203.887Z" fill="#ED847E"/>
<path d="M201.805 200.466C201.753 200.49 201.696 200.498 201.64 200.49C201.583 200.481 201.53 200.457 201.488 200.419C201.198 200.155 200.85 199.963 200.472 199.859C200.094 199.756 199.697 199.743 199.313 199.823C199.242 199.853 199.163 199.855 199.091 199.831C199.018 199.807 198.957 199.758 198.918 199.692V199.63C198.906 199.592 198.902 199.552 198.906 199.512C198.909 199.472 198.921 199.433 198.939 199.398C198.958 199.363 198.984 199.332 199.015 199.306C199.045 199.281 199.081 199.262 199.119 199.251C199.601 199.145 200.101 199.156 200.577 199.282C201.054 199.409 201.493 199.647 201.859 199.978C201.923 200.03 201.963 200.104 201.972 200.185C201.98 200.266 201.957 200.348 201.906 200.412C201.875 200.435 201.841 200.453 201.805 200.466Z" fill="#263238"/>
<path d="M200.42 210.636C201.153 210.41 201.822 210.01 202.368 209.471C202.915 208.933 203.325 208.27 203.562 207.54C203.568 207.519 203.57 207.497 203.567 207.476C203.564 207.455 203.557 207.434 203.546 207.415C203.536 207.396 203.521 207.38 203.504 207.367C203.487 207.354 203.467 207.344 203.446 207.339C203.403 207.329 203.358 207.335 203.319 207.357C203.281 207.378 203.251 207.413 203.237 207.455C203.01 208.126 202.629 208.734 202.123 209.23C201.617 209.727 201.002 210.097 200.327 210.311C200.288 210.327 200.257 210.357 200.239 210.394C200.221 210.432 200.218 210.475 200.229 210.515C200.241 210.555 200.266 210.589 200.301 210.612C200.337 210.634 200.379 210.643 200.42 210.636Z" fill="#263238"/>
<path d="M191.573 202.532C191.543 202.546 191.512 202.552 191.48 202.552C191.448 202.552 191.416 202.546 191.387 202.532C191.347 202.523 191.31 202.506 191.277 202.483C191.244 202.459 191.215 202.429 191.194 202.395C191.172 202.36 191.158 202.322 191.151 202.282C191.144 202.242 191.146 202.2 191.155 202.161C191.262 201.677 191.484 201.227 191.802 200.847C192.12 200.467 192.525 200.169 192.981 199.978C193.058 199.951 193.143 199.955 193.217 199.99C193.291 200.024 193.348 200.087 193.376 200.164C193.402 200.239 193.397 200.321 193.364 200.393C193.331 200.465 193.272 200.521 193.198 200.551C192.842 200.704 192.527 200.939 192.279 201.236C192.03 201.533 191.854 201.884 191.766 202.261C191.767 202.321 191.749 202.38 191.714 202.429C191.679 202.478 191.63 202.514 191.573 202.532Z" fill="#263238"/>
<path d="M150.713 250.381L158.763 276.318C158.763 276.318 166.72 273.81 170.203 275.985C172.358 277.355 174.366 278.945 176.193 280.73L170.636 252.502C170.636 252.502 163.244 243.81 150.713 250.381Z" fill="#49DC95"/>
<path d="M170.636 252.509L176.193 280.737C176.193 280.737 184.831 271.395 192.749 275.319L195.435 276.705L192.184 248.454C192.184 248.454 181.89 243.237 170.636 252.509Z" fill="#49DC95"/>
<path opacity="0.8" d="M170.636 252.509L176.193 280.737C176.193 280.737 184.831 271.395 192.749 275.319L195.435 276.705L192.184 248.454C192.184 248.454 181.89 243.237 170.636 252.509Z" fill="white"/>
<path opacity="0.8" d="M150.713 250.381L158.763 276.318C158.763 276.318 166.72 273.81 170.203 275.985C172.358 277.355 174.366 278.945 176.193 280.73L170.636 252.502C170.636 252.502 163.244 243.81 150.713 250.381Z" fill="white"/>
<path d="M176.178 280.459C169.46 278.284 162.919 276 157.555 280.768C155.566 273.098 152.61 265.784 150.373 258.191C148.577 252.099 148.569 253.167 151.781 251.395C154.56 249.847 167.54 248.469 170.288 255.59C171.286 258.191 175.698 279.855 176.178 280.459Z" fill="#263238"/>
<path d="M197.455 279.274C193.484 275.799 187.238 275.985 183.113 279.274C181.348 280.668 178.887 281.643 178.895 281.465L173.159 255.087L172.927 255.257C174.103 251.279 180.203 249.344 184.065 249.22C187.497 249.294 190.834 250.37 193.662 252.316C193.662 252.316 196.596 271.627 197.455 279.274Z" fill="#263238"/>
<path d="M178.895 281.465C178.895 281.465 176.573 282.185 175.667 280.288L170.009 254.917C170.009 254.917 170.961 256.581 172.919 255.218L173.151 255.048L178.887 281.426C178.891 281.439 178.894 281.452 178.895 281.465Z" fill="#263238"/>
<path opacity="0.1" d="M178.895 281.465C178.895 281.465 176.573 282.185 175.667 280.288L170.009 254.917C170.009 254.917 170.961 256.581 172.919 255.218L173.151 255.048L178.887 281.426C178.891 281.439 178.894 281.452 178.895 281.465Z" fill="white"/>
<path opacity="0.1" d="M219.53 228.616C216.627 228.19 215.427 229.228 213.415 233.19C211.557 236.851 210.536 247.401 210.536 247.401C210.18 253.175 209.444 252.525 214.909 252.943C218.407 253.214 222.835 253.949 222.835 253.949C222.835 253.949 228.206 229.878 219.53 228.616Z" fill="black"/>
<path d="M227.61 234.081C227.672 236.658 227.61 239.065 227.486 241.557C227.363 244.05 227.192 246.488 226.945 248.965C226.479 254.024 225.57 259.033 224.228 263.934L223.601 265.83L223.446 266.31V266.426L223.376 266.612L223.191 267.115C222.943 267.708 222.626 268.269 222.246 268.787C221.637 269.617 220.9 270.346 220.064 270.946C219.385 271.442 218.662 271.874 217.904 272.239C215.393 273.409 212.73 274.221 209.994 274.654C205.025 275.468 199.981 275.728 194.955 275.428L194.7 270.497L198.129 269.793C199.274 269.553 200.451 269.267 201.55 269.019C203.81 268.477 206.047 267.897 208.175 267.192C210.138 266.608 212.024 265.792 213.794 264.762C214.271 264.505 214.676 264.133 214.971 263.678C214.971 263.562 214.777 264.081 214.971 263.268L215.358 261.72C216.236 257.262 216.81 252.75 217.076 248.214C217.246 245.892 217.355 243.57 217.463 241.248C217.571 238.926 217.602 236.542 217.633 234.282L227.61 234.081Z" fill="#FFC3BD"/>
<path d="M196.743 270.76L191.325 266.852L189.684 275.087C189.684 275.087 195.032 277.409 196.565 274.7L196.743 270.76Z" fill="#FFC3BD"/>
<path d="M185.845 267.022L184.816 273.903L189.7 275.087L191.333 266.852L185.845 267.022Z" fill="#FFC3BD"/>
<path d="M227.765 229.29C231.449 234.375 230.234 251.527 230.234 251.527L213.136 249.886C213.136 249.886 211.364 240.288 213.91 232.571C216.658 224.197 223.299 223.113 227.765 229.29Z" fill="#49DC95"/>
<path opacity="0.5" d="M227.765 229.29C231.449 234.375 230.234 251.527 230.234 251.527L213.136 249.886C213.136 249.886 211.364 240.288 213.91 232.571C216.658 224.197 223.299 223.113 227.765 229.29Z" fill="black"/>
<path d="M190.768 197.78C190.095 196.909 189.49 195.987 188.957 195.025C191.209 195.473 191.441 194.312 192.362 191.155C193.415 187.586 197.455 185.295 199.599 184.963C214.475 182.555 215.319 191 215.466 192.377C215.475 192.886 215.333 193.386 215.057 193.813C214.782 194.24 214.385 194.576 213.918 194.777C212.974 195.156 211.963 195.34 210.946 195.319C208.786 195.412 205.574 196.17 203.492 195.628C195.048 193.415 191.797 197.896 190.768 197.78Z" fill="#263238"/>
<path d="M179.545 308.563L189.63 313.826L194.475 316.357L192.385 321.752L187.594 320.01L175.899 315.753L179.545 308.563Z" fill="#FFC3BD"/>
<path opacity="0.2" d="M179.545 308.563L189.63 313.826L187.594 320.01L175.899 315.753L179.545 308.563Z" fill="black"/>
<path d="M162.532 322.882L151.712 326.396L146.518 328.091L144.126 322.82L148.724 320.621L159.947 315.242L162.532 322.882Z" fill="#FFC3BD"/>
<path opacity="0.2" d="M162.532 322.882L151.712 326.396L148.724 320.621L159.947 315.242L162.532 322.882Z" fill="black"/>
<path d="M227.943 292.966C227.75 292.441 227.47 291.952 227.115 291.519C223.593 287.324 210.667 287.409 202.811 288.237C199.235 288.609 194.576 290.412 189.529 292.966C188.795 291.834 187.823 290.875 186.681 290.157C180.141 286.341 171.201 284.956 162.447 285.079C175.195 284.669 189.591 285.853 189.591 285.853L223.965 283.005C225.935 286.03 227.288 289.416 227.943 292.966Z" fill="#49DC95"/>
<path opacity="0.1" d="M227.943 292.966C227.75 292.441 227.47 291.952 227.115 291.519C223.593 287.324 210.667 287.409 202.811 288.237C199.235 288.609 194.576 290.412 189.529 292.966C188.795 291.834 187.823 290.875 186.681 290.157C180.141 286.341 171.201 284.956 162.447 285.079C175.195 284.669 189.591 285.853 189.591 285.853L223.965 283.005C225.935 286.03 227.288 289.416 227.943 292.966Z" fill="black"/>
<path d="M191.426 307.278C189.522 310.281 185.961 311.922 182.432 312.347C178.902 312.773 175.334 312.154 171.828 311.527L162.687 309.917L147.788 307.278C144.986 306.775 142.114 306.256 139.622 304.871C131.595 300.412 129.97 295.389 134.134 291.713C135.527 290.547 137.122 289.647 138.84 289.058L139.041 288.973C143.823 287.303 148.776 286.174 153.809 285.606H153.987C156.795 285.265 159.619 285.073 162.447 285.033C171.224 284.909 180.141 286.295 186.681 290.11C187.823 290.829 188.795 291.788 189.529 292.92C192.354 297.092 193.632 303.826 191.426 307.278Z" fill="#49DC95"/>
<path opacity="0.1" d="M191.426 307.278C189.522 310.281 185.961 311.922 182.432 312.347C178.902 312.773 175.334 312.154 171.828 311.527L162.687 309.917L147.788 307.278C144.986 306.775 142.114 306.256 139.622 304.871C131.595 300.412 129.97 295.389 134.134 291.713C135.527 290.547 137.122 289.647 138.84 289.058L139.041 288.973C143.823 287.303 148.776 286.174 153.809 285.606H153.987C156.795 285.265 159.619 285.073 162.447 285.033C171.224 284.909 180.141 286.295 186.681 290.11C187.823 290.829 188.795 291.788 189.529 292.92C192.354 297.092 193.632 303.826 191.426 307.278Z" fill="black"/>
<path d="M136.503 290.25C136.503 290.25 127.88 294.584 129.8 303.152C129.8 303.152 131.193 308.617 147.47 311.86C163.747 315.103 184.39 318.826 184.39 318.826L186.472 312.169C186.472 312.169 165.063 293.679 148.863 289.723C144.78 288.685 140.482 288.868 136.503 290.25Z" fill="#49DC95"/>
<path d="M185.296 321.434L180.048 321.334L184.638 308.423L188.786 310.854L185.296 321.434Z" fill="#49DC95"/>
<g opacity="0.6">
<path opacity="0.6" d="M185.296 321.434L180.048 321.334L184.638 308.423L188.786 310.854L185.296 321.434Z" fill="white"/>
</g>
<path d="M191.557 313.47C191.658 313.911 207.238 318.114 213.043 316.047C231.209 309.6 187.308 294.94 191.557 313.47Z" fill="#49DC95"/>
<path opacity="0.1" d="M191.557 313.47C191.658 313.911 207.238 318.114 213.043 316.047C231.209 309.6 187.308 294.94 191.557 313.47Z" fill="black"/>
<path d="M227.355 303.454C226.947 304.74 226.429 305.988 225.807 307.185C225.69 307.386 225.59 307.595 225.474 307.789C225.19 308.297 224.88 308.791 224.545 309.267L224.483 309.368C224.328 309.584 224.181 309.786 224.019 309.994C219.375 315.978 207.223 318.33 204.344 314.46C203.142 312.647 202.23 310.657 201.642 308.563C191.84 313.634 181.657 317.932 171.185 321.419C165.767 323.214 160.048 324.917 154.243 326.31L150.736 318.95L152.122 317.866C154.057 316.318 157.896 313.392 162.71 309.925C170.404 304.368 180.605 297.479 189.552 292.943C194.599 290.389 199.258 288.586 202.834 288.214C210.69 287.386 223.616 287.301 227.138 291.496C227.493 291.928 227.773 292.418 227.966 292.943C228.965 295.575 228.616 299.631 227.355 303.454Z" fill="#49DC95"/>
<path d="M150.071 317.58L153.98 314.073L159.421 326.643L154.723 327.696L150.071 317.58Z" fill="#49DC95"/>
<g opacity="0.6">
<path opacity="0.6" d="M150.071 317.58L153.98 314.073L159.421 326.643L154.723 327.696L150.071 317.58Z" fill="white"/>
</g>
<path d="M185.396 326.009C185.536 326.111 185.695 326.183 185.865 326.221C186.034 326.258 186.209 326.259 186.379 326.225C186.549 326.174 186.714 326.109 186.874 326.032C187.308 325.84 187.686 325.542 187.973 325.165L188.237 324.84C188.618 324.352 188.96 323.834 189.258 323.292C189.272 323.262 189.275 323.228 189.265 323.196C189.255 323.164 189.233 323.138 189.204 323.122C189.172 323.101 189.134 323.09 189.096 323.09C189.057 323.09 189.02 323.101 188.987 323.122C188.91 323.122 188.724 323.23 188.469 323.338L188.353 323.385L187.579 323.725C186.518 324.244 185.257 324.971 185.141 325.536C185.133 325.631 185.154 325.726 185.199 325.81C185.244 325.894 185.313 325.963 185.396 326.009ZM185.551 325.591C185.574 325.487 185.628 325.393 185.706 325.32C186.452 324.715 187.278 324.215 188.159 323.834L188.368 323.741L188.662 323.625C188.538 323.826 188.415 324.012 188.291 324.19C188.025 324.582 187.719 324.945 187.377 325.273C187.093 325.586 186.725 325.811 186.317 325.923C186.202 325.951 186.083 325.953 185.967 325.927C185.852 325.902 185.744 325.85 185.651 325.776C185.618 325.759 185.59 325.732 185.572 325.699C185.554 325.666 185.547 325.628 185.551 325.591Z" fill="#49DC95"/>
<path d="M184.119 322.936C184.475 323.501 186.356 323.764 187.594 323.71C187.807 323.708 188.019 323.693 188.229 323.663C188.254 323.67 188.281 323.67 188.306 323.663C188.306 323.663 188.361 323.617 188.368 323.586C188.385 323.563 188.393 323.536 188.393 323.509C188.393 323.481 188.385 323.454 188.368 323.431C187.573 322.673 186.571 322.167 185.489 321.976C185.11 321.947 184.732 322.051 184.421 322.27C183.972 322.526 184.011 322.758 184.119 322.936ZM184.467 322.796C184.467 322.796 184.374 322.657 184.645 322.464L184.738 322.402C184.953 322.282 185.198 322.231 185.443 322.255C186.325 322.416 187.146 322.815 187.819 323.408C186.642 323.532 184.731 323.207 184.467 322.796Z" fill="#49DC95"/>
<path d="M189.026 320.869L194.196 315.49C194.306 315.381 194.446 315.307 194.597 315.278C194.749 315.249 194.906 315.266 195.048 315.327L201.619 318.16C201.76 318.209 201.888 318.29 201.992 318.396C202.097 318.502 202.175 318.631 202.222 318.773C202.268 318.914 202.281 319.065 202.26 319.212C202.239 319.36 202.184 319.5 202.099 319.623L202.022 319.716C195.125 329.236 191.186 331.875 190.234 332.827C187.447 335.552 185.148 333.431 185.752 332.348C188.477 327.487 188.484 325.722 188.291 323.408C188.285 322.508 188.54 321.626 189.026 320.869Z" fill="#263238"/>
<path d="M140.148 316.659C140.009 316.764 139.893 316.897 139.807 317.049C139.72 317.2 139.665 317.368 139.645 317.541C139.642 317.717 139.655 317.893 139.684 318.067C139.734 318.541 139.904 318.994 140.179 319.383C140.249 319.499 140.326 319.608 140.411 319.724C140.753 320.236 141.139 320.718 141.564 321.163C141.576 321.175 141.59 321.185 141.605 321.191C141.62 321.198 141.637 321.201 141.653 321.201C141.67 321.201 141.686 321.198 141.702 321.191C141.717 321.185 141.731 321.175 141.742 321.163C141.773 321.139 141.796 321.106 141.81 321.07C141.824 321.033 141.827 320.993 141.82 320.954C141.82 320.877 141.82 320.676 141.766 320.397C141.766 320.397 141.766 320.312 141.766 320.265C141.766 320.033 141.711 319.755 141.665 319.491C141.495 318.323 141.193 316.875 140.682 316.62C140.598 316.576 140.504 316.557 140.41 316.564C140.315 316.57 140.225 316.603 140.148 316.659ZM140.504 316.937C140.596 316.991 140.669 317.072 140.713 317.169C141.067 318.065 141.293 319.005 141.386 319.964C141.394 320.036 141.394 320.108 141.386 320.18C141.386 320.289 141.386 320.389 141.386 320.498C141.224 320.327 141.085 320.142 140.953 319.979C140.658 319.604 140.399 319.202 140.179 318.779C139.971 318.412 139.869 317.994 139.885 317.572C139.895 317.454 139.93 317.339 139.989 317.236C140.048 317.133 140.129 317.044 140.225 316.976C140.241 316.954 140.26 316.936 140.283 316.923C140.305 316.909 140.33 316.9 140.356 316.897C140.382 316.893 140.409 316.895 140.434 316.902C140.46 316.909 140.484 316.921 140.504 316.937Z" fill="#49DC95"/>
<path d="M143.469 316.38C142.819 316.55 141.998 318.261 141.65 319.476C141.591 319.677 141.544 319.881 141.51 320.087C141.51 320.087 141.51 320.087 141.51 320.126C141.503 320.151 141.503 320.178 141.51 320.204C141.521 320.236 141.54 320.265 141.565 320.289C141.588 320.306 141.617 320.315 141.646 320.315C141.675 320.315 141.703 320.306 141.727 320.289C142.694 319.755 143.48 318.947 143.987 317.967C144.133 317.612 144.15 317.218 144.034 316.852C143.902 316.365 143.654 316.326 143.469 316.38ZM143.469 316.752C143.507 316.752 143.631 316.713 143.732 317.022V317.131C143.783 317.37 143.758 317.618 143.662 317.843C143.24 318.637 142.608 319.301 141.836 319.762C142.176 318.609 143.02 316.875 143.492 316.752H143.469Z" fill="#49DC95"/>
<path d="M144.258 322.185L147.052 327.603C147.122 327.741 147.149 327.896 147.13 328.049C147.11 328.202 147.046 328.346 146.944 328.462L141.371 332.642C141.282 332.763 141.166 332.862 141.031 332.93C140.897 332.999 140.748 333.034 140.597 333.034C140.446 333.034 140.298 332.999 140.163 332.93C140.029 332.862 139.912 332.763 139.823 332.642L139.754 332.541C132.788 323.083 131.147 318.772 130.535 317.549C128.794 314.066 131.503 312.518 132.354 313.423C136.162 317.487 139.088 319.793 141.348 320.312C144.475 321.419 144.041 321.798 144.258 322.185Z" fill="#263238"/>
<path d="M192.827 207.316H192.78C192.142 207.306 191.521 207.108 190.995 206.746C190.47 206.384 190.063 205.874 189.828 205.28C189.592 204.687 189.537 204.037 189.671 203.413C189.804 202.789 190.12 202.218 190.578 201.774C191.036 201.329 191.615 201.03 192.243 200.914C192.871 200.799 193.519 200.872 194.105 201.125C194.691 201.377 195.189 201.798 195.536 202.334C195.883 202.87 196.063 203.496 196.054 204.135C196.042 204.982 195.697 205.792 195.093 206.387C194.489 206.982 193.675 207.316 192.827 207.316ZM192.827 201.588C192.172 201.59 191.543 201.849 191.077 202.309C190.611 202.77 190.344 203.394 190.334 204.049C190.324 204.711 190.576 205.35 191.036 205.826C191.496 206.302 192.126 206.576 192.788 206.588C193.451 206.594 194.089 206.337 194.562 205.872C195.036 205.408 195.305 204.774 195.311 204.111C195.317 203.448 195.06 202.81 194.595 202.337C194.131 201.864 193.497 201.594 192.834 201.588H192.827Z" fill="#263238"/>
<path d="M200.272 205.543H200.218C199.58 205.534 198.958 205.335 198.433 204.973C197.907 204.61 197.5 204.1 197.265 203.506C197.03 202.912 196.975 202.262 197.11 201.638C197.244 201.013 197.56 200.443 198.019 199.998C198.477 199.554 199.058 199.255 199.686 199.141C200.314 199.026 200.962 199.1 201.548 199.354C202.134 199.608 202.632 200.03 202.978 200.567C203.324 201.104 203.503 201.731 203.492 202.37C203.48 203.216 203.135 204.023 202.533 204.617C201.93 205.21 201.118 205.543 200.272 205.543ZM200.272 199.823C199.619 199.825 198.992 200.083 198.526 200.542C198.06 201 197.792 201.623 197.78 202.277C197.771 202.772 197.909 203.258 198.176 203.674C198.444 204.09 198.829 204.418 199.282 204.615C199.736 204.813 200.238 204.871 200.725 204.783C201.212 204.695 201.661 204.465 202.017 204.121C202.373 203.777 202.619 203.335 202.723 202.852C202.828 202.368 202.787 201.864 202.605 201.404C202.423 200.944 202.109 200.548 201.702 200.267C201.295 199.985 200.814 199.831 200.319 199.823H200.272Z" fill="#263238"/>
<path d="M195.775 202.935L195.048 202.788C195.048 202.672 195.296 201.604 196.077 201.371C196.369 201.324 196.669 201.359 196.942 201.473C197.216 201.586 197.452 201.774 197.625 202.014L197.114 202.525C196.758 202.169 196.457 202.006 196.263 202.068C196.07 202.13 195.822 202.703 195.775 202.935Z" fill="#263238"/>
<path d="M203.167 202.169L203.005 201.456L210.35 199.715L211.766 200.025L211.612 200.737L210.35 200.458L203.167 202.169Z" fill="#263238"/>
<path d="M238.346 302.696V307.665C238.23 307.68 238.123 307.736 238.046 307.824C237.969 307.911 237.926 308.024 237.926 308.141C237.926 308.258 237.969 308.37 238.046 308.458C238.123 308.545 238.23 308.602 238.346 308.617H244.034V301.72H238.346C238.216 301.72 238.092 301.772 238.001 301.863C237.909 301.955 237.858 302.079 237.858 302.208C237.858 302.337 237.909 302.461 238.001 302.553C238.092 302.644 238.216 302.696 238.346 302.696Z" fill="#49DC95"/>
<path opacity="0.3" d="M238.346 302.696V307.665C238.23 307.68 238.123 307.736 238.046 307.824C237.969 307.911 237.926 308.024 237.926 308.141C237.926 308.258 237.969 308.37 238.046 308.458C238.123 308.545 238.23 308.602 238.346 308.617H244.034V301.72H238.346C238.216 301.72 238.092 301.772 238.001 301.863C237.909 301.955 237.858 302.079 237.858 302.208C237.858 302.337 237.909 302.461 238.001 302.553C238.092 302.644 238.216 302.696 238.346 302.696Z" fill="white"/>
<path d="M242.758 302.703H238.346V307.665H242.758V302.703Z" fill="#49DC95"/>
<path opacity="0.6" d="M242.758 302.703H238.346V307.665H242.758V302.703Z" fill="white"/>
<path d="M241.836 302.216H266.21C267.262 302.216 268.114 303.539 268.114 305.18C268.114 306.821 267.262 308.137 266.21 308.137H241.836V302.216Z" fill="#49DC95"/>
<path opacity="0.9" d="M241.836 302.216H266.21C267.262 302.216 268.114 303.539 268.114 305.18C268.114 306.821 267.262 308.137 266.21 308.137H241.836V302.216Z" fill="white"/>
<path d="M241.836 308.617C246.844 308.617 260.931 308.702 265.946 308.617C269.375 308.555 269.561 301.976 266.194 301.744C263.872 301.581 261.434 301.744 259.081 301.744H241.836C241.721 301.758 241.614 301.815 241.537 301.903C241.46 301.99 241.417 302.103 241.417 302.22C241.417 302.336 241.46 302.449 241.537 302.537C241.614 302.624 241.721 302.681 241.836 302.696H265.149C266.248 302.696 267.038 302.696 267.471 304.004C267.835 305.126 267.719 307.417 266.217 307.665C266.045 307.676 265.871 307.676 265.699 307.665H241.836C241.721 307.68 241.614 307.736 241.537 307.824C241.46 307.911 241.417 308.024 241.417 308.141C241.417 308.257 241.46 308.37 241.537 308.458C241.614 308.545 241.721 308.602 241.836 308.617Z" fill="#49DC95"/>
<g opacity="0.2">
<path opacity="0.2" d="M241.836 308.617C246.844 308.617 260.931 308.702 265.946 308.617C269.375 308.555 269.561 301.976 266.194 301.744C263.872 301.581 261.434 301.744 259.081 301.744H241.836C241.721 301.758 241.614 301.815 241.537 301.903C241.46 301.99 241.417 302.103 241.417 302.22C241.417 302.336 241.46 302.449 241.537 302.537C241.614 302.624 241.721 302.681 241.836 302.696H265.149C266.248 302.696 267.038 302.696 267.471 304.004C267.835 305.126 267.719 307.417 266.217 307.665C266.045 307.676 265.871 307.676 265.699 307.665H241.836C241.721 307.68 241.614 307.736 241.537 307.824C241.46 307.911 241.417 308.024 241.417 308.141C241.417 308.257 241.46 308.37 241.537 308.458C241.614 308.545 241.721 308.602 241.836 308.617Z" fill="white"/>
</g>
<path d="M239.166 309.399V314.004C239.06 314.018 238.963 314.07 238.892 314.15C238.822 314.231 238.783 314.334 238.783 314.441C238.783 314.548 238.822 314.651 238.892 314.732C238.963 314.812 239.06 314.864 239.166 314.878H244.429V308.516H239.166C239.049 308.516 238.937 308.563 238.854 308.645C238.771 308.728 238.725 308.84 238.725 308.957C238.725 309.074 238.771 309.187 238.854 309.269C238.937 309.352 239.049 309.399 239.166 309.399Z" fill="#49DC95"/>
<path opacity="0.3" d="M239.166 309.399V314.004C239.06 314.018 238.963 314.07 238.892 314.15C238.822 314.231 238.783 314.334 238.783 314.441C238.783 314.548 238.822 314.651 238.892 314.732C238.963 314.812 239.06 314.864 239.166 314.878H244.429V308.516H239.166C239.049 308.516 238.937 308.563 238.854 308.645C238.771 308.728 238.725 308.84 238.725 308.957C238.725 309.074 238.771 309.187 238.854 309.269C238.937 309.352 239.049 309.399 239.166 309.399Z" fill="white"/>
<path d="M243.284 309.406H239.197V314.004H243.284V309.406Z" fill="#49DC95"/>
<path opacity="0.6" d="M243.284 309.406H239.197V314.004H243.284V309.406Z" fill="white"/>
<path d="M242.425 308.957H264.994C265.97 308.957 266.759 310.188 266.759 311.697C266.759 313.207 265.985 314.437 264.994 314.437H242.425V308.957Z" fill="#49DC95"/>
<path opacity="0.9" d="M242.425 308.957H264.994C265.97 308.957 266.759 310.188 266.759 311.697C266.759 313.207 265.985 314.437 264.994 314.437H242.425V308.957Z" fill="white"/>
<path d="M242.425 314.878C247.069 314.878 260.11 314.964 264.754 314.878C267.928 314.824 268.098 308.733 264.987 308.516C262.812 308.369 260.575 308.516 258.4 308.516H242.425C242.308 308.516 242.195 308.563 242.113 308.645C242.03 308.728 241.983 308.84 241.983 308.957C241.983 309.074 242.03 309.187 242.113 309.269C242.195 309.352 242.308 309.399 242.425 309.399H264.019C265.033 309.399 265.761 309.399 266.155 310.614C266.496 311.651 266.388 313.772 264.994 314.004C264.837 314.015 264.679 314.015 264.522 314.004H242.425C242.319 314.018 242.221 314.07 242.151 314.151C242.081 314.231 242.042 314.334 242.042 314.441C242.042 314.548 242.081 314.651 242.151 314.732C242.221 314.812 242.319 314.864 242.425 314.878Z" fill="#49DC95"/>
<path d="M236.573 315.846V321.326C236.445 321.341 236.328 321.403 236.243 321.499C236.158 321.596 236.11 321.72 236.11 321.848C236.11 321.977 236.158 322.101 236.243 322.197C236.328 322.293 236.445 322.355 236.573 322.371C238.655 322.371 240.745 322.371 242.835 322.371V314.77H236.573C236.43 314.77 236.294 314.827 236.193 314.928C236.092 315.029 236.035 315.165 236.035 315.308C236.035 315.451 236.092 315.587 236.193 315.688C236.294 315.789 236.43 315.846 236.573 315.846Z" fill="#49DC95"/>
<path opacity="0.3" d="M236.573 315.846V321.326C236.445 321.341 236.328 321.403 236.243 321.499C236.158 321.596 236.11 321.72 236.11 321.848C236.11 321.977 236.158 322.101 236.243 322.197C236.328 322.293 236.445 322.355 236.573 322.371C238.655 322.371 240.745 322.371 242.835 322.371V314.77H236.573C236.43 314.77 236.294 314.827 236.193 314.928C236.092 315.029 236.035 315.165 236.035 315.308C236.035 315.451 236.092 315.587 236.193 315.688C236.294 315.789 236.43 315.846 236.573 315.846Z" fill="white"/>
<path d="M241.442 315.854H236.573V321.326H241.442V315.854Z" fill="#49DC95"/>
<path opacity="0.6" d="M241.442 315.854H236.573V321.326H241.442V315.854Z" fill="white"/>
<path d="M240.412 315.327H267.278C268.439 315.327 269.375 316.782 269.375 318.586C269.375 320.389 268.439 321.852 267.278 321.852H240.412V315.327Z" fill="#49DC95"/>
<path opacity="0.9" d="M240.412 315.327H267.278C268.439 315.327 269.375 316.782 269.375 318.586C269.375 320.389 268.439 321.852 267.278 321.852H240.412V315.327Z" fill="white"/>
<path d="M240.412 322.371C245.939 322.371 261.465 322.471 266.984 322.371C270.768 322.309 270.97 315.056 267.262 314.801C264.677 314.623 262.015 314.801 259.422 314.801H240.412C240.285 314.817 240.167 314.878 240.082 314.975C239.997 315.071 239.95 315.195 239.95 315.323C239.95 315.452 239.997 315.576 240.082 315.672C240.167 315.769 240.285 315.83 240.412 315.846H266.109C267.324 315.846 268.191 315.846 268.655 317.293C269.066 318.532 268.934 321.055 267.278 321.326C267.09 321.341 266.901 321.341 266.713 321.326H240.397C240.269 321.341 240.152 321.403 240.066 321.499C239.981 321.596 239.934 321.72 239.934 321.848C239.934 321.977 239.981 322.101 240.066 322.197C240.152 322.293 240.269 322.355 240.397 322.371H240.412Z" fill="#49DC95"/>
<g opacity="0.2">
<path opacity="0.2" d="M240.412 322.371C245.939 322.371 261.465 322.471 266.984 322.371C270.768 322.309 270.97 315.056 267.262 314.801C264.677 314.623 262.015 314.801 259.422 314.801H240.412C240.285 314.817 240.167 314.878 240.082 314.975C239.997 315.071 239.95 315.195 239.95 315.323C239.95 315.452 239.997 315.576 240.082 315.672C240.167 315.769 240.285 315.83 240.412 315.846H266.109C267.324 315.846 268.191 315.846 268.655 317.293C269.066 318.532 268.934 321.055 267.278 321.326C267.09 321.341 266.901 321.341 266.713 321.326H240.397C240.269 321.341 240.152 321.403 240.066 321.499C239.981 321.596 239.934 321.72 239.934 321.848C239.934 321.977 239.981 322.101 240.066 322.197C240.152 322.293 240.269 322.355 240.397 322.371H240.412Z" fill="black"/>
</g>
<path d="M71.4402 321.14L78.7932 309.608L91.5797 305.474L109.544 308.284L110.62 319.019L101.711 320.707L94.0565 319.546L89.7995 317.889L84.8923 322.092L78.0734 323.276L73.5377 322.704L71.4402 321.14Z" fill="#49DC95"/>
<path opacity="0.1" d="M71.4402 321.14L78.7932 309.608L91.5797 305.474L109.544 308.284L110.62 319.019L101.711 320.707L94.0565 319.546L89.7995 317.889L84.8923 322.092L78.0734 323.276L73.5377 322.704L71.4402 321.14Z" fill="black"/>
<path opacity="0.2" d="M94.0643 305.861L92.7562 319.043L89.7995 317.889L86.4094 320.792L89.2964 306.217L91.5797 305.474L94.0643 305.861Z" fill="black"/>
<path d="M70.9758 322.982C70.9758 322.982 83.6927 328.269 90.1943 319.112C90.1943 319.112 103.515 325.645 110.62 319.035L109.389 317.022C109.389 317.022 105.937 322.673 89.6602 316.62C89.6602 316.62 82.7406 325.645 71.4402 321.156L70.9758 322.982Z" fill="#49DC95"/>
<path opacity="0.8" d="M70.9758 322.982C70.9758 322.982 83.6927 328.269 90.1943 319.112C90.1943 319.112 103.515 325.645 110.62 319.035L109.389 317.022C109.389 317.022 105.937 322.673 89.6602 316.62C89.6602 316.62 82.7406 325.645 71.4402 321.156L70.9758 322.982Z" fill="white"/>
<path d="M80.5347 311.573L89.753 304.174L102.764 303.454L119.405 309.019L118.383 317.417L109.552 316.999L102.454 314.662L98.7004 312.587L93.2128 314.855L86.4635 314.468L82.2452 313.16L80.5347 311.573Z" fill="#49DC95"/>
<path opacity="0.1" d="M80.5347 311.573L89.753 304.174L102.764 303.454L119.405 309.019L118.383 317.417L109.552 316.999L102.454 314.662L98.7004 312.587L93.2128 314.855L86.4635 314.468L82.2452 313.16L80.5347 311.573Z" fill="black"/>
<path opacity="0.2" d="M105.071 304.22L101.309 314.027L98.7006 312.587L94.908 314.151L100.442 303.578L102.764 303.454L105.071 304.22Z" fill="black"/>
<path d="M79.7219 312.881C79.7219 312.881 90.8753 319.344 98.832 313.586C98.832 313.586 110.326 321.109 118.368 317.409L117.594 315.645C117.594 315.645 113.221 319.298 98.8088 311.581C96.037 313.203 92.8833 314.059 89.6717 314.059C86.4601 314.059 83.3064 313.203 80.5346 311.581L79.7219 312.881Z" fill="#49DC95"/>
<path opacity="0.8" d="M79.7219 312.881C79.7219 312.881 90.8753 319.344 98.832 313.586C98.832 313.586 110.326 321.109 118.368 317.409L117.594 315.645C117.594 315.645 113.221 319.298 98.8088 311.581C96.037 313.203 92.8833 314.059 89.6717 314.059C86.4601 314.059 83.3064 313.203 80.5346 311.581L79.7219 312.881Z" fill="white"/>
<path d="M188.477 289.166L229.251 290.9C229.251 290.9 228.516 285.908 227.982 285.776C227.448 285.644 220.753 279.87 212.943 282.618C211.24 283.206 210.002 283.663 209.119 283.988C208.268 283.586 207.076 283.036 205.427 282.293C197.873 278.895 190.721 284.081 190.164 284.166C189.607 284.251 188.477 289.166 188.477 289.166Z" fill="#49DC95"/>
<path opacity="0.6" d="M188.477 289.166L229.251 290.9V290.776C229.127 290.002 228.477 285.9 227.997 285.776L227.904 285.73C226.952 285.211 220.474 279.971 212.966 282.634C211.256 283.23 210.017 283.679 209.135 284.019C208.283 283.609 207.092 283.059 205.443 282.316C197.889 278.918 190.737 284.104 190.187 284.189C189.638 284.274 188.477 289.166 188.477 289.166Z" fill="white"/>
<path d="M183.817 288.973L225.087 290.722C225.087 290.722 224.313 285.668 223.802 285.536C223.291 285.405 216.457 280.319 208.554 283.098C206.828 283.702 204.607 286.233 204.607 286.233C204.607 286.233 202.61 283.516 200.938 282.773C193.299 279.336 186.085 283.818 185.528 283.911C184.971 284.004 183.817 288.973 183.817 288.973Z" fill="#49DC95"/>
<path opacity="0.8" d="M183.817 288.973L225.087 290.722C225.087 290.722 224.313 285.668 223.802 285.536C223.291 285.405 216.457 280.319 208.554 283.098C206.828 283.702 204.607 286.233 204.607 286.233C204.607 286.233 202.61 283.516 200.938 282.773C193.299 279.336 186.085 283.818 185.528 283.911C184.971 284.004 183.817 288.973 183.817 288.973Z" fill="white"/>
<path d="M204.367 287.603L205.574 290.033L202.471 289.901L204.367 287.603Z" fill="#49DC95"/>
<g opacity="0.3">
<path opacity="0.3" d="M204.367 287.603L205.574 290.033L202.471 289.901L204.367 287.603Z" fill="black"/>
</g>
<path opacity="0.1" d="M223.856 285.559C224.11 286.137 224.307 286.739 224.445 287.355C224.762 288.903 225.087 290.722 225.087 290.722L229.251 290.9V290.776C229.127 290.002 228.477 285.9 227.997 285.776L227.904 285.73L223.856 285.559Z" fill="black"/>
<path d="M182.177 290.436L202.393 291.798H202.44C202.87 291.446 203.414 291.264 203.969 291.287C204.524 291.31 205.051 291.536 205.451 291.922L205.489 291.96L226.341 292.572L231.604 292.734L231.287 290.915L205.582 289.824C205.179 289.413 204.635 289.171 204.06 289.147C203.485 289.123 202.923 289.318 202.486 289.692L182.765 288.826L182.177 290.436Z" fill="#263238"/>
<g opacity="0.3">
<path opacity="0.3" d="M226.016 290.621L226.349 292.502L231.612 292.665L231.287 290.846L226.016 290.621Z" fill="black"/>
</g>
<path d="M202.618 286.418C202.618 286.418 199.599 282.634 195.721 283.152C195.721 283.152 198.43 282.928 202.618 286.418Z" fill="#49DC95"/>
<path opacity="0.4" d="M202.618 286.418C202.618 286.418 199.599 282.634 195.721 283.152C195.721 283.152 198.43 282.928 202.618 286.418Z" fill="white"/>
<path d="M210.11 288.415C210.11 288.415 214.452 286.287 217.742 288.415C217.742 288.408 215.381 287.045 210.11 288.415Z" fill="#49DC95"/>
<path opacity="0.4" d="M210.11 288.415C210.11 288.415 214.452 286.287 217.742 288.415C217.742 288.408 215.381 287.045 210.11 288.415Z" fill="white"/>
<path d="M206.147 286.999C206.147 286.999 209.684 283.702 213.446 284.778C213.446 284.778 210.799 284.158 206.147 286.999Z" fill="#49DC95"/>
<path opacity="0.4" d="M206.147 286.999C206.147 286.999 209.684 283.702 213.446 284.778C213.446 284.778 210.799 284.158 206.147 286.999Z" fill="white"/>
<path d="M197.564 286.148C197.564 286.148 193.43 283.632 189.963 285.451C189.963 285.451 192.432 284.306 197.564 286.148Z" fill="#49DC95"/>
<path opacity="0.4" d="M197.564 286.148C197.564 286.148 193.43 283.632 189.963 285.451C189.963 285.451 192.432 284.306 197.564 286.148Z" fill="white"/>
<path d="M250.939 285.606C249.616 285.869 248.27 286.003 246.922 286.008C244.193 286.022 241.488 285.495 238.963 284.458C236.439 283.42 234.146 281.893 232.216 279.963L231.62 280.567C233.63 282.566 236.015 284.147 238.638 285.22C241.262 286.294 244.072 286.838 246.906 286.821C248.328 286.817 249.746 286.674 251.14 286.395C250.979 286.211 250.89 285.974 250.892 285.73C250.905 285.687 250.921 285.646 250.939 285.606Z" fill="#49DC95"/>
<path d="M253.452 284.928L249.342 284.939L249.375 296.82L253.485 296.809L253.452 284.928Z" fill="#49DC95"/>
<g opacity="0.2">
<path opacity="0.2" d="M253.452 284.928L249.342 284.939L249.375 296.82L253.485 296.809L253.452 284.928Z" fill="black"/>
</g>
<path d="M238.926 301.697C238.926 298.601 244.499 296.078 251.395 296.055C258.292 296.032 263.888 298.532 263.896 301.628C255.838 303.888 247.321 303.941 239.236 301.782L238.926 301.697Z" fill="#49DC95"/>
<path d="M262.761 250.905L233.045 280.997L233.651 281.595L263.367 251.503L262.761 250.905Z" fill="#49DC95"/>
<path d="M268.485 265.133C268.486 262.291 267.923 259.477 266.828 256.855C265.733 254.232 264.129 251.853 262.107 249.855L261.511 250.458C264.191 253.113 266.098 256.447 267.027 260.102C267.957 263.758 267.874 267.597 266.787 271.209C265.701 274.821 263.651 278.069 260.859 280.606C258.068 283.142 254.638 284.87 250.939 285.606C250.935 285.66 250.935 285.714 250.939 285.768C250.937 286.013 251.025 286.25 251.186 286.434C256.084 285.432 260.485 282.768 263.643 278.894C266.801 275.019 268.523 270.171 268.516 265.172L268.485 265.133Z" fill="#49DC95"/>
<path d="M259.445 276.937C257.33 279.127 254.614 280.641 251.638 281.288C248.663 281.934 245.563 281.684 242.73 280.569C239.897 279.454 237.459 277.524 235.723 275.022C233.987 272.521 233.031 269.562 232.977 266.518C232.923 263.474 233.773 260.482 235.419 257.921C237.065 255.359 239.433 253.344 242.225 252.129C245.016 250.913 248.106 250.553 251.102 251.094C254.098 251.634 256.867 253.051 259.058 255.164C261.995 258.001 263.686 261.888 263.759 265.971C263.831 270.053 262.28 273.998 259.445 276.937Z" fill="#49DC95"/>
<path d="M254.182 271.86L253.686 271.38C257.231 267.703 260.11 261 258.756 255.273L259.429 255.118C260.838 261.078 257.858 268.051 254.182 271.86Z" fill="#49DC95"/>
<path d="M237.959 277.347L238.098 276.666C243.864 277.819 250.482 274.708 254.011 271.039L254.515 271.519C250.838 275.327 243.973 278.547 237.959 277.347Z" fill="#49DC95"/>
<path d="M243.113 261.163L242.61 260.683C246.287 256.875 253.152 253.647 259.166 254.855L259.027 255.528C253.261 254.375 246.658 257.494 243.113 261.163Z" fill="#49DC95"/>
<path d="M237.696 277.092C236.287 271.132 239.244 264.158 242.943 260.35L243.439 260.83C239.894 264.499 237.014 271.209 238.369 276.937L237.696 277.092Z" fill="#49DC95"/>
<path d="M258.847 254.985L237.458 277.133L237.959 277.617L259.348 255.469L258.847 254.985Z" fill="#49DC95"/>
<path d="M244.967 251.093L244.483 251.594L263.235 269.702L263.719 269.201L244.967 251.093Z" fill="#49DC95"/>
<path d="M237.393 255.542L236.909 256.043L259.052 277.426L259.536 276.924L237.393 255.542Z" fill="#49DC95"/>
<path d="M233.463 263.501L232.979 264.003L251.235 281.633L251.719 281.131L233.463 263.501Z" fill="#49DC95"/>
<g opacity="0.2">
<path opacity="0.2" d="M254.182 271.86L253.687 271.38C257.231 267.703 260.111 261 258.756 255.273L259.43 255.118C260.838 261.078 257.858 268.051 254.182 271.86Z" fill="black"/>
<path opacity="0.2" d="M237.959 277.347L238.098 276.666C243.864 277.819 250.482 274.708 254.011 271.039L254.515 271.519C250.838 275.327 243.973 278.547 237.959 277.347Z" fill="black"/>
<path opacity="0.2" d="M243.114 261.163L242.611 260.683C246.287 256.875 253.152 253.647 259.166 254.855L259.027 255.528C253.261 254.375 246.659 257.494 243.114 261.163Z" fill="black"/>
<path opacity="0.2" d="M237.696 277.092C236.287 271.132 239.244 264.158 242.943 260.35L243.439 260.83C239.894 264.499 237.014 271.209 238.369 276.937L237.696 277.092Z" fill="black"/>
<path opacity="0.2" d="M258.847 254.985L237.458 277.133L237.96 277.617L259.348 255.469L258.847 254.985Z" fill="black"/>
<path opacity="0.2" d="M244.967 251.093L244.483 251.594L263.235 269.702L263.719 269.201L244.967 251.093Z" fill="black"/>
<path opacity="0.2" d="M237.393 255.542L236.909 256.043L259.052 277.426L259.536 276.924L237.393 255.542Z" fill="black"/>
<path opacity="0.2" d="M233.463 263.501L232.979 264.003L251.235 281.633L251.719 281.131L233.463 263.501Z" fill="black"/>
</g>
</svg>
